<svg width="132" height="45" viewBox="0 0 132 45" fill="none" xmlns="http://www.w3.org/2000/svg">
<path fill-rule="evenodd" clip-rule="evenodd" d="M47.9232 14.8066V28.7445H51.8189V18.159H54.84C55.8394 18.159 56.5514 18.4136 57.0349 18.9364C57.6448 19.5987 57.8934 20.6686 57.8934 22.6231V28.7461H61.6701V21.044C61.6701 15.5495 58.2279 14.8083 54.8667 14.8083H47.9256L47.9232 14.8066ZM84.532 28.7501V14.8284V14.8228H89.9537C93.0307 14.8228 95.0927 15.2014 96.5247 17.1511C97.3192 18.2387 97.7744 19.9854 97.7744 21.9415C97.7744 24.0765 97.2366 26.0286 96.404 26.918C95.2248 28.1861 94.1354 28.7501 90.7969 28.7501H84.532ZM69.5175 25.861L72.7411 14.8284L72.7403 14.8276H76.6846L72.2381 28.7493H66.6698L62.2589 14.8276H66.4285L69.5175 25.861ZM99.5725 28.7501H103.436V14.8284H99.5725V28.7501ZM105.007 28.7453L110.401 14.8316H115.56L121 28.7453H116.863L116.048 26.2864H109.671L108.817 28.7453H105.007ZM115.246 23.8888L112.91 17.3694L112.909 17.371L110.495 23.8888H115.246ZM88.3646 17.8577H90.025C92.4337 17.8577 93.992 18.9614 93.992 21.8174C93.992 24.6775 92.4337 25.7813 90.025 25.7813H88.3646V17.8609V17.8577ZM78.3134 28.7445L78.3118 14.8236H82.1768V28.7445H78.3134Z" fill="#2D3B40"/>
<path fill-rule="evenodd" clip-rule="evenodd" d="M23.1814 11.0056V13.9672C16.6533 14.5013 11 20.128 11 20.128C11 20.128 14.2017 29.551 23.1814 30.413V28.7058C23.5799 28.7622 23.9937 28.7864 24.4246 28.7864C29.809 28.7864 33.7032 25.9908 37.4742 22.6795C37.7533 22.9103 38.42 23.2846 39.1187 23.6769C39.9814 24.1612 40.8928 24.673 41.1837 24.9757C37.599 28.0291 29.2437 30.4944 24.5072 30.4944C24.0512 30.4944 23.6114 30.467 23.1814 30.4219V33H43.6467V11.0056H23.1814ZM23.1814 26.8689C23.6479 26.9535 24.1444 27.0035 24.6749 27.0035C30.4602 27.0035 36.0139 20.128 36.0139 20.128C36.0139 20.128 31.1794 13.678 23.7564 13.9326C23.5645 13.9398 23.3725 13.9511 23.1814 13.9672V15.5721C23.3709 15.556 23.562 15.5479 23.7564 15.5398C29.0939 15.3706 32.5952 20.2046 32.5952 20.2046C32.5952 20.2046 28.8128 25.5477 24.7591 25.5477C24.176 25.5477 23.6519 25.451 23.1814 25.2899V19.2877H23.1733C21.0893 19.0364 19.4605 21.0118 19.4605 21.0118C19.4605 21.0118 20.3733 24.3472 23.1814 25.314V26.8689ZM23.1814 15.5753C17.3132 16.0317 14.3611 20.4294 14.3355 20.4678C14.358 20.541 16.6247 27.8633 23.1814 28.705V26.8689C18.2003 25.9666 16.8185 20.6976 16.8185 20.6976C16.8185 20.6976 19.2103 17.9987 23.1814 17.5636V19.2716C25.128 19.5109 25.6168 20.3459 26.6989 22.194C26.7716 22.3182 26.847 22.447 26.9257 22.5805L29.7037 20.1957C29.7037 20.1957 27.6765 17.4887 24.2586 17.4887C23.886 17.4887 23.5296 17.5153 23.1814 17.5532V15.5753Z" fill="#2D3B40"/>
</svg>
