<svg width="77" height="30" viewBox="0 0 77 30" fill="none" xmlns="http://www.w3.org/2000/svg">
<path fill-rule="evenodd" clip-rule="evenodd" d="M29.1328 10.9727V18.195H31.1515V12.7098H32.717C33.2349 12.7098 33.6038 12.8417 33.8543 13.1126C34.1704 13.4558 34.2992 14.0102 34.2992 15.023V18.1958H36.2562V14.2048C36.2562 11.3576 34.4725 10.9735 32.7308 10.9735H29.1341L29.1328 10.9727ZM48.1029 18.1979V10.9839V10.981H50.9123C52.5067 10.981 53.5752 11.1772 54.3172 12.1875C54.729 12.7511 54.9648 13.6562 54.9648 14.6698C54.9648 15.7761 54.6862 16.7877 54.2547 17.2486C53.6436 17.9057 53.0792 18.1979 51.3492 18.1979H48.1029ZM40.3226 16.7008L41.993 10.9839L41.9926 10.9835H44.0365L41.7324 18.1975H38.847L36.5614 10.9835H38.7219L40.3226 16.7008ZM55.8965 18.1979H57.8985V10.9839H55.8965V18.1979ZM58.7127 18.1954L61.5078 10.9856H64.1808L66.9999 18.1954H64.8561L64.4339 16.9213H61.1293L60.6869 18.1954H58.7127ZM64.0184 15.6789L62.8076 12.3006L62.8072 12.3015L61.5565 15.6789H64.0184ZM50.0889 12.5536H50.9492C52.1974 12.5536 53.0049 13.1256 53.0049 14.6055C53.0049 16.0876 52.1974 16.6595 50.9492 16.6595H50.0889V12.5553V12.5536ZM44.8805 18.195L44.8796 10.9814H46.8824V18.195H44.8805Z" fill="#2D3B40"/>
<path fill-rule="evenodd" clip-rule="evenodd" d="M16.3122 9.00293V10.5376C12.9294 10.8144 10 13.73 10 13.73C10 13.73 11.659 18.6128 16.3122 19.0595V18.1749C16.5187 18.2041 16.7331 18.2166 16.9564 18.2166C19.7465 18.2166 21.7644 16.768 23.7185 15.0521C23.8631 15.1717 24.2085 15.3657 24.5706 15.5689L24.5706 15.5689C25.0176 15.8199 25.4899 16.0851 25.6406 16.242C23.7831 17.8242 19.4536 19.1017 16.9992 19.1017C16.7629 19.1017 16.535 19.0875 16.3122 19.0641V20.4H26.9169V9.00293H16.3122ZM16.3122 17.223C16.5539 17.2669 16.8112 17.2927 17.0861 17.2927C20.0839 17.2927 22.9618 13.73 22.9618 13.73C22.9618 13.73 20.4566 10.3877 16.6101 10.5196C16.5107 10.5234 16.4112 10.5292 16.3122 10.5376V11.3692C16.4104 11.3608 16.5094 11.3567 16.6101 11.3525C19.3759 11.2648 21.1902 13.7697 21.1902 13.7697C21.1902 13.7697 19.2303 16.5384 17.1297 16.5384C16.8275 16.5384 16.556 16.4883 16.3122 16.4048V13.2946H16.308C15.2281 13.1643 14.3841 14.188 14.3841 14.188C14.3841 14.188 14.8571 15.9163 16.3122 16.4173V17.223ZM16.3122 11.3709C13.2714 11.6074 11.7417 13.8862 11.7284 13.906C11.74 13.944 12.9146 17.7383 16.3122 18.1744V17.223C13.7311 16.7554 13.0151 14.0252 13.0151 14.0252C13.0151 14.0252 14.2544 12.6266 16.3122 12.4012V13.2862C17.3209 13.4102 17.5742 13.8429 18.1349 14.8005C18.1725 14.8649 18.2116 14.9316 18.2524 15.0008L19.6919 13.7651C19.6919 13.7651 18.6415 12.3624 16.8704 12.3624C16.6773 12.3624 16.4926 12.3761 16.3122 12.3958V11.3709Z" fill="#2D3B40"/>
</svg>
