<svg width="120" height="50" viewBox="0 0 120 50" fill="none" xmlns="http://www.w3.org/2000/svg">
<path fill-rule="evenodd" clip-rule="evenodd" d="M45.2098 19.1145V30.5182H48.3973V21.8573H50.869C51.6868 21.8573 52.2693 22.0656 52.6649 22.4934C53.1639 23.0353 53.3673 23.9106 53.3673 25.5098V30.5195H56.4574V24.2178C56.4574 19.7223 53.641 19.1158 50.8909 19.1158H45.2118L45.2098 19.1145ZM75.1626 30.5228V19.1323V19.1277H79.5985C82.116 19.1277 83.8031 19.4375 84.9747 21.0327C85.6248 21.9226 85.9972 23.3517 85.9972 24.9521C85.9972 26.6989 85.5572 28.2961 84.876 29.0238C83.9112 30.0614 83.0199 30.5228 80.2883 30.5228H75.1626ZM62.878 28.159L65.5154 19.1323L65.5147 19.1316H68.7419L65.1039 30.5221H60.548L56.9391 19.1316H60.3505L62.878 28.159ZM87.4684 30.5228H90.6293V19.1323H87.4684V30.5228ZM91.9149 30.5188L96.3283 19.1349H100.549L105 30.5188H101.615L100.948 28.507H95.7305L95.0321 30.5188H91.9149ZM100.292 26.5453L98.3806 21.2113L98.3799 21.2126L96.4052 26.5453H100.292ZM78.2983 21.6108H79.6568C81.6276 21.6108 82.9026 22.5139 82.9026 24.8506C82.9026 27.1907 81.6276 28.0937 79.6568 28.0937H78.2983V21.6134V21.6108ZM70.0746 30.5182L70.0733 19.1283H73.2355V30.5182H70.0746Z" fill="#2D3B40"/>
<path fill-rule="evenodd" clip-rule="evenodd" d="M24.9666 16.0046V18.4278C19.6254 18.8648 15 23.4684 15 23.4684C15 23.4684 17.6195 31.1781 24.9666 31.8834V30.4866C25.2926 30.5328 25.6312 30.5526 25.9838 30.5526C30.3892 30.5526 33.5753 28.2652 36.6607 25.556C36.8891 25.7448 37.4345 26.0511 38.0062 26.372L38.0062 26.372L38.0062 26.372C38.712 26.7683 39.4578 27.187 39.6958 27.4347C36.7628 29.9329 29.9267 31.95 26.0514 31.95C25.6783 31.95 25.3184 31.9276 24.9666 31.8907V34H41.7109V16.0046H24.9666ZM24.9666 28.9837C25.3483 29.0529 25.7545 29.0938 26.1885 29.0938C30.922 29.0938 35.4659 23.4684 35.4659 23.4684C35.4659 23.4684 31.5104 18.1911 25.4371 18.3994C25.28 18.4053 25.123 18.4146 24.9666 18.4278V19.7408C25.1216 19.7276 25.278 19.721 25.4371 19.7145C29.8041 19.576 32.6688 23.5311 32.6688 23.5311C32.6688 23.5311 29.5741 27.9027 26.2575 27.9027C25.7803 27.9027 25.3516 27.8236 24.9666 27.6918V22.7809H24.9599C23.2549 22.5753 21.9223 24.1916 21.9223 24.1916C21.9223 24.1916 22.6691 26.9205 24.9666 27.7115V28.9837ZM24.9666 19.7435C20.1654 20.1169 17.7501 23.7149 17.729 23.7464C17.7474 23.8062 19.602 29.7973 24.9666 30.486V28.9837C20.8911 28.2455 19.7606 23.9345 19.7606 23.9345C19.7606 23.9345 21.7175 21.7262 24.9666 21.3703V22.7677C26.5593 22.9635 26.9592 23.6467 27.8445 25.1587C27.904 25.2604 27.9657 25.3657 28.0301 25.475L30.3031 23.5238C30.3031 23.5238 28.6444 21.309 25.8479 21.309C25.5431 21.309 25.2515 21.3307 24.9666 21.3617V19.7435Z" fill="#2D3B40"/>
</svg>
