<svg width="85" height="40" viewBox="0 0 85 40" fill="none" xmlns="http://www.w3.org/2000/svg">
<path fill-rule="evenodd" clip-rule="evenodd" d="M31.8182 16.1768V24.1471H34.1203V18.0938H35.9054C36.496 18.0938 36.9167 18.2394 37.2024 18.5384C37.5628 18.9171 37.7098 19.5289 37.7098 20.6466V24.148H39.9414V19.7436C39.9414 16.6015 37.9074 16.1777 35.9212 16.1777H31.8197L31.8182 16.1768ZM53.4508 24.1503V16.1892V16.186H56.6545C58.4727 16.186 59.6912 16.4025 60.5373 17.5174C61.0068 18.1394 61.2758 19.1382 61.2758 20.2568C61.2758 21.4777 60.958 22.594 60.466 23.1026C59.7692 23.8278 59.1255 24.1503 57.1527 24.1503H53.4508ZM44.5786 22.4982L46.4834 16.1892L46.4829 16.1887H48.8137L46.1862 24.1498H42.8958L40.2894 16.1887H42.7532L44.5786 22.4982ZM62.3383 24.1503H64.6212V16.1892H62.3383V24.1503ZM65.5497 24.1475L68.7371 16.191H71.7853L75 24.1475H72.5553L72.0739 22.7414H68.3054L67.801 24.1475H65.5497ZM71.6001 21.3704L70.2193 17.6423L70.2188 17.6432L68.7926 21.3704H71.6001ZM55.7155 17.9215H56.6966C58.1199 17.9215 59.0408 18.5526 59.0408 20.1859C59.0408 21.8214 58.1199 22.4526 56.6966 22.4526H55.7155V17.9233V17.9215ZM49.7761 24.1471L49.7751 16.1864H52.059V24.1471H49.7761Z" fill="#2D3B40"/>
<path fill-rule="evenodd" clip-rule="evenodd" d="M17 14.0032V15.6967C17.1129 15.6875 17.2264 15.6811 17.3398 15.6769C21.7261 15.5314 24.5829 19.2198 24.5829 19.2198C24.5829 19.2198 21.3011 23.1515 17.8825 23.1515C17.5691 23.1515 17.2757 23.123 17 23.0746V24.0963C13.2779 23.5001 11.984 19.4552 11.971 19.414C11.9861 19.3921 13.7305 16.8773 17.1981 16.6163V17.7473C17.4039 17.7257 17.6145 17.7105 17.8346 17.7105C19.8543 17.7105 21.0522 19.2585 21.0522 19.2585L19.4106 20.6222C19.3641 20.5458 19.3196 20.4722 19.2766 20.4012C18.6372 19.3443 18.3484 18.8669 17.1981 18.73L17.1981 17.7533C14.8515 18.0021 13.4382 19.5455 13.4382 19.5455C13.4382 19.5455 14.2547 22.5585 17.1981 23.0745V22.1854C15.5388 21.6325 14.9994 19.7252 14.9994 19.7252C14.9994 19.7252 15.9619 18.5955 17.1933 18.7392H17.1981L17.1981 22.1715C17.4761 22.2637 17.7858 22.319 18.1304 22.319C20.5258 22.319 22.7608 19.2635 22.7608 19.2635C22.7608 19.2635 20.6918 16.4993 17.5379 16.596C17.423 16.6006 17.3101 16.6052 17.1981 16.6144V15.6967C13.3406 16.0021 10 19.2198 10 19.2198C10 19.2198 11.8919 24.6082 17.1981 25.1012V24.1477C17.3719 24.1639 17.5507 24.1711 17.7346 24.1711C20.9163 24.1711 23.2174 22.5724 25.4458 20.6789C25.6107 20.8108 26.0046 21.0249 26.4175 21.2492L26.4175 21.2492C26.9273 21.5262 27.4659 21.8188 27.6377 21.9919C25.5195 23.738 20.5823 25.1478 17.7835 25.1478C17.514 25.1478 17.2541 25.1321 17 25.1063V26.5806H29.0932V14.0032H17ZM17.1981 24.1477C17.1313 24.1415 17.0653 24.1339 17 24.125V24.0963C17.0653 24.1068 17.1313 24.1162 17.1981 24.1245V24.1477Z" fill="#2D3B40"/>
</svg>
