<svg width="120" height="50" fill="none" xmlns="http://www.w3.org/2000/svg"><path fill-rule="evenodd" clip-rule="evenodd" d="M91.812 28.983c.524-.362.885-.901.957-1.68.028-.308.032-.436.034-.608v-2.48h-3.3v1.349h.955v1.34c.001.117-.004.246-.02.352-.044.247-.28.67-.954.67-.673 0-.907-.422-.948-.67a1.93 1.93 0 0 1-.023-.351v-4.226c0-.149.01-.314.039-.435.05-.23.248-.674.926-.674.71 0 .888.47.928.674.028.131.032.352.03.351v.517h2.347v-.308s.01-.314-.021-.608c-.171-1.73-1.616-2.283-3.266-2.283-1.652 0-3.062.556-3.268 2.282a6.745 6.745 0 0 0-.04.61l-.001 3.89c.003.172.007.3.034.608.157 1.681 1.623 2.28 3.275 2.28.443 0 .87-.047 1.264-.142-7.509 3.225-17.453 6.11-28.542 8.029-24.822 4.292-45.939 2.114-47.163-4.865-.663-3.784 4.67-8.202 13.641-12.137a2.113 2.113 0 0 0-.907 1.452 3.19 3.19 0 0 0 .021 1.248c.232 1.08 1.412 1.72 2.47 2.295.792.43 1.515.823 1.72 1.336.091.224.064.511.021.685-.078.307-.288.62-.907.62-.583 0-.937-.331-.937-.839v-.894h-2.495l-.002.715c0 2.06 1.633 2.681 3.383 2.681 1.683 0 3.07-.571 3.29-2.11.112-.798.028-1.32-.01-1.518-.226-1.112-1.49-1.776-2.573-2.344-.8-.42-1.503-.79-1.615-1.25a1.218 1.218 0 0 1-.01-.486c.065-.294.268-.62.85-.62.545 0 .866.334.866.839v.57h2.32V22.2c0-2.012-1.819-2.326-3.137-2.326-.474 0-.92.05-1.325.15 7.451-3.142 17.215-5.944 28.068-7.82 24.823-4.295 45.935-2.117 47.157 4.861.653 3.714-4.462 8.038-13.132 11.919ZM63.41 27.46c-.193 1.694-1.416 2.32-2.898 2.32-1.543 0-2.984-.684-2.984-2.948l.002-.784h2.2l.001.984c0 .551.313.92.825.92.548 0 .733-.343.8-.683.038-.193.064-.504-.018-.75-.18-.563-.818-.996-1.517-1.47-.932-.632-1.972-1.337-2.175-2.523a4.358 4.358 0 0 1-.02-1.371c.216-1.659 1.41-2.254 2.868-2.254 1.162 0 2.77.347 2.77 2.558v.713h-2.052v-.627c0-.556-.28-.918-.76-.918-.513 0-.69.352-.75.682-.02.11-.031.326.008.53.099.506.718.912 1.423 1.374.956.626 2.07 1.356 2.27 2.58.036.214.108.787.007 1.667Zm6.975 2.32c1.552 0 2.798-.581 2.948-2.373.007-.091.022-.454.018-.63V19.89h-2.136v7.104c.002.125-.003.263-.02.367-.04.235-.224.696-.809.696-.59 0-.768-.46-.814-.696a2.584 2.584 0 0 1-.02-.367V19.89h-2.134v6.886c-.004.177.011.54.018.63.148 1.793 1.396 2.374 2.95 2.374Zm10.495 0h3.35v-9.89H81.9l.13 7.847h-.052l-2.164-7.847H76.32v9.89h2.315l-.129-8.116h.05l2.325 8.116Zm-26.85-8.892.064 8.892h2.445l-.212-9.89h-3.99l-1.209 7.56h-.052l-1.208-7.56h-3.991l-.217 9.89h2.45l.062-8.892h.053l1.636 8.892h2.483l1.635-8.892h.05ZM40.08 29.78l-1.294-8.974h-.055l-1.33 8.974H34.78l1.8-9.89h4.32l1.792 9.89h-2.611Z" fill="#2D3B40"/></svg>