<svg width="165" height="55" fill="none" xmlns="http://www.w3.org/2000/svg"><path fill-rule="evenodd" clip-rule="evenodd" d="M130.218 33.79c.786-.549 1.327-1.366 1.435-2.547.042-.467.048-.66.051-.923v-3.76h-4.949v2.045h1.432v2.034c.002.177-.006.372-.031.533-.065.374-.418 1.015-1.429 1.015-1.01 0-1.362-.64-1.423-1.015a2.976 2.976 0 0 1-.035-.533V24.23c0-.226.016-.476.059-.66.074-.349.372-1.022 1.39-1.022 1.063 0 1.331.712 1.391 1.021.041.2.049.535.046.533v.785h3.519v-.467s.015-.477-.031-.924c-.257-2.623-2.423-3.461-4.899-3.461-2.478 0-4.593.842-4.903 3.461a10.63 10.63 0 0 0-.058.924l-.003 5.9c.005.262.011.456.051.923.236 2.55 2.435 3.46 4.913 3.46.665 0 1.305-.074 1.896-.218-11.263 4.892-26.18 9.267-42.813 12.178-37.233 6.51-68.908 3.205-70.744-7.38-.995-5.738 7.003-12.438 20.461-18.407-.701.493-1.197 1.2-1.36 2.202-.1.63-.116 1.191.031 1.894.349 1.637 2.118 2.609 3.704 3.48 1.189.653 2.274 1.25 2.582 2.026.136.34.095.776.03 1.04-.116.465-.43.94-1.36.94-.874 0-1.405-.503-1.405-1.273V29.83h-3.744l-.003 1.085c0 3.124 2.45 4.066 5.076 4.066 2.524 0 4.603-.866 4.934-3.2.169-1.211.043-2.003-.015-2.303-.339-1.686-2.234-2.692-3.86-3.555-1.2-.638-2.253-1.197-2.42-1.894a1.865 1.865 0 0 1-.016-.738c.097-.447.402-.94 1.276-.94.816 0 1.297.506 1.297 1.271v.866h3.481v-.985c0-3.052-2.729-3.528-4.706-3.528-.712 0-1.379.077-1.987.227 11.177-4.766 25.822-9.015 42.1-11.86 37.236-6.514 68.904-3.21 70.737 7.373.979 5.632-6.693 12.191-19.698 18.077Zm-40.842-2.052c-.325 2.313-2.385 3.168-4.882 3.168-2.599 0-5.026-.934-5.026-4.026l.004-1.07h3.705l.003 1.344c0 .752.526 1.255 1.39 1.255.922 0 1.233-.467 1.348-.932.062-.264.106-.688-.032-1.024-.304-.77-1.378-1.36-2.555-2.007-1.57-.863-3.321-1.826-3.665-3.446a4.84 4.84 0 0 1-.032-1.871c.363-2.265 2.376-3.078 4.83-3.078 1.958 0 4.665.474 4.665 3.493v.974h-3.455v-.856c0-.76-.471-1.254-1.28-1.254-.864 0-1.164.481-1.263.93-.034.151-.054.446.013.726.166.69 1.208 1.244 2.397 1.875 1.61.854 3.486 1.85 3.823 3.522.061.293.181 1.075.012 2.277Zm8.233 3.111c2.564 0 4.624-.848 4.872-3.464.012-.133.037-.663.029-.92V20.413h-3.53v10.369c.004.183-.004.384-.032.536-.067.344-.37 1.017-1.338 1.017-.975 0-1.27-.673-1.345-1.017a3.347 3.347 0 0 1-.034-.536v-10.37h-3.525v10.053c-.008.257.017.787.03.92.244 2.616 2.306 3.464 4.873 3.464Zm15.559-.564h4.968V20.42h-3.455l.191 11.002h-.077l-3.208-11.002h-5.183v13.866h3.433l-.191-11.38h.074l3.448 11.38ZM72.475 21.833l.092 12.598h3.488l-.303-14.012H70.06L68.335 31.13h-.074l-1.723-10.71h-5.695l-.309 14.012h3.496l.088-12.598h.075l2.335 12.598h3.541l2.333-12.598h.073ZM53.997 34.431l-1.86-12.714h-.079l-1.911 12.714h-3.769l2.588-14.012h6.208l2.577 14.012h-3.754Z" fill="#2D3B40"/></svg>