<svg width="132" height="45" fill="none" xmlns="http://www.w3.org/2000/svg"><path fill-rule="evenodd" clip-rule="evenodd" d="M104.822 27.246c.639-.444 1.08-1.104 1.168-2.057.034-.377.038-.534.041-.745v-3.037h-4.027v1.652h1.166V24.7c.001.143-.005.3-.025.43-.053.302-.341.82-1.164.82-.821 0-1.107-.517-1.157-.82a2.404 2.404 0 0 1-.029-.43v-5.174c0-.183.014-.385.049-.534.06-.281.302-.825 1.13-.825.865 0 1.084.575 1.132.825.034.161.04.432.037.43v.634h2.864v-.377s.012-.385-.026-.746c-.208-2.118-1.971-2.795-3.985-2.795-2.016 0-3.737.68-3.99 2.795a8.295 8.295 0 0 0-.046.745l-.003 4.765c.004.211.009.368.041.745.192 2.058 1.982 2.793 3.998 2.793.54 0 1.062-.06 1.542-.176-9.163 3.95-21.3 7.482-34.831 9.833-30.292 5.256-56.061 2.588-57.555-5.958-.81-4.633 5.697-10.043 16.646-14.863-.57.398-.974.97-1.106 1.778-.082.509-.095.962.025 1.53.283 1.321 1.723 2.106 3.014 2.81.966.527 1.85 1.008 2.1 1.635.11.274.077.627.025.84-.096.375-.351.759-1.107.759-.711 0-1.143-.406-1.143-1.028v-1.095H26.56l-.002.876c0 2.523 1.993 3.284 4.129 3.284 2.053 0 3.745-.7 4.014-2.585.138-.977.035-1.617-.012-1.859-.276-1.362-1.818-2.174-3.14-2.87-.977-.515-1.834-.967-1.97-1.53a1.496 1.496 0 0 1-.012-.596c.078-.36.327-.758 1.038-.758.663 0 1.055.408 1.055 1.026v.699h2.832v-.795c0-2.465-2.22-2.85-3.828-2.85-.58 0-1.122.063-1.617.185 9.093-3.848 21.008-7.28 34.252-9.577 30.293-5.26 56.058-2.592 57.549 5.953.796 4.548-5.445 9.844-16.026 14.596Zm-33.808-1.822c-.264 2.043-1.94 2.798-3.974 2.798-2.115 0-4.09-.824-4.09-3.556l.003-.945h3.015l.003 1.187c0 .664.428 1.109 1.13 1.109.752 0 1.005-.413 1.098-.823.05-.233.087-.608-.025-.905-.248-.68-1.123-1.201-2.08-1.772-1.278-.763-2.704-1.613-2.983-3.044a4.633 4.633 0 0 1-.027-1.653c.296-2 1.934-2.718 3.932-2.718 1.594 0 3.797.418 3.797 3.085v.86H68v-.756c0-.67-.384-1.108-1.042-1.108-.703 0-.947.425-1.028.823a1.69 1.69 0 0 0 .01.64c.136.61.984 1.098 1.952 1.656 1.31.755 2.838 1.635 3.112 3.111.05.26.147.95.01 2.01Zm7.19 2.798c2.127 0 3.836-.712 4.042-2.906.01-.112.03-.556.024-.772V16.11h-2.928v8.699a2.47 2.47 0 0 1-.027.45c-.055.288-.307.852-1.11.852-.81 0-1.053-.564-1.115-.853a2.834 2.834 0 0 1-.029-.45V16.11h-2.924v8.433c-.006.216.015.66.024.772.203 2.194 1.914 2.906 4.043 2.906Zm12.982 0h4.306v-12.11h-2.995l.165 9.608h-.066l-2.78-9.609h-4.494v12.111h2.976l-.166-9.94h.065l2.989 9.94ZM58.882 17.334l.079 10.888h2.971l-.258-12.11h-4.848l-1.47 9.257h-.063l-1.468-9.258h-4.85l-.263 12.111h2.977l.075-10.888h.064l1.989 10.888h3.016l1.988-10.888h.062ZM42.305 28.222l-1.663-10.989h-.07l-1.71 10.99h-3.37l2.314-12.112h5.552l2.304 12.111h-3.357Z" fill="#2D3B40"/></svg>