<svg width="120" height="50" viewBox="0 0 120 50" fill="none" xmlns="http://www.w3.org/2000/svg">
<path fill-rule="evenodd" clip-rule="evenodd" d="M91.8119 28.983C92.3359 28.6207 92.6968 28.0818 92.7689 27.3033C92.7966 26.995 92.8006 26.8674 92.8026 26.6946V24.2148H89.5032V25.5637H90.4583V26.9047C90.4593 27.0215 90.4543 27.1501 90.4375 27.2562C90.394 27.5026 90.1587 27.9257 89.4844 27.9257C88.8111 27.9257 88.5767 27.5035 88.5362 27.2562C88.5174 27.1501 88.5105 27.0215 88.5125 26.9047V22.6794C88.5125 22.5302 88.5233 22.3653 88.552 22.2436C88.6014 22.0138 88.8002 21.5701 89.4784 21.5701C90.1874 21.5701 90.3663 22.0394 90.4059 22.2436C90.4336 22.3751 90.4385 22.596 90.4365 22.595V23.1124H92.7828V22.8041C92.7828 22.8041 92.7927 22.49 92.762 22.1955C92.591 20.4657 91.1464 19.913 89.4962 19.913C87.8441 19.913 86.4341 20.4686 86.2275 22.1955C86.2097 22.3496 86.1889 22.6402 86.1889 22.8041L86.187 26.6946C86.1899 26.8674 86.1939 26.995 86.2206 27.3033C86.3778 28.984 87.8441 29.5838 89.4962 29.5838C89.9392 29.5838 90.3663 29.5357 90.7598 29.4405C83.2514 32.6664 73.3067 35.5506 62.2181 37.4699C37.3959 41.7619 16.2795 39.5835 15.0555 32.6045C14.392 28.821 19.7243 24.4033 28.696 20.4676C28.2284 20.7926 27.8981 21.2589 27.7894 21.9196C27.7221 22.3349 27.7122 22.705 27.8101 23.1683C28.0424 24.2476 29.2222 24.8885 30.2796 25.463C31.0719 25.8934 31.7954 26.2865 32.0004 26.7987C32.0913 27.0225 32.0637 27.3102 32.0211 27.4839C31.943 27.7912 31.7334 28.1044 31.1145 28.1044C30.5311 28.1044 30.1772 27.7725 30.1772 27.265V26.3707H27.6816L27.6796 27.0863C27.6796 29.1459 29.313 29.7674 31.0631 29.7674C32.7459 29.7674 34.1321 29.196 34.3526 27.6567C34.4653 26.8586 34.3813 26.3363 34.3427 26.139C34.117 25.0269 32.8533 24.3634 31.7699 23.7946C30.9693 23.3743 30.2672 23.0057 30.1554 22.5459C30.1109 22.3604 30.1238 22.164 30.1455 22.059C30.2098 21.7645 30.4135 21.4395 30.9958 21.4395C31.5396 21.4395 31.861 21.7733 31.861 22.2779V22.8483H34.1815V22.1994C34.1815 20.1869 32.3623 19.8727 31.0443 19.8727C30.5697 19.8727 30.1248 19.9238 29.7194 20.0229C37.1705 16.8805 46.9342 14.0787 57.7866 12.2026C82.6097 7.90767 103.722 10.0861 104.944 17.0641C105.597 20.7779 100.482 25.1023 91.8119 28.983ZM63.4101 27.4598C63.2173 29.1543 61.9943 29.7802 60.5115 29.7802C58.9689 29.7802 57.5275 29.0965 57.5275 26.8317L57.5301 26.0477H59.7296L59.7314 27.0324C59.7314 27.583 60.044 27.9516 60.5564 27.9516C61.1041 27.9516 61.289 27.6092 61.3568 27.269C61.3938 27.076 61.4202 26.7652 61.3383 26.5188C61.1577 25.9555 60.5197 25.5229 59.8213 25.0493C58.8892 24.4171 57.8493 23.7119 57.6455 22.5257C57.5601 22.0132 57.5662 21.6097 57.6261 21.155C57.8418 19.4965 59.0367 18.9011 60.4939 18.9011C61.6562 18.9011 63.2631 19.2479 63.2631 21.4592V22.1724H61.2124V21.5454C61.2124 20.9893 60.9324 20.6272 60.4525 20.6272C59.9392 20.6272 59.7613 20.9794 59.7023 21.3087C59.6821 21.4189 59.6706 21.6348 59.7102 21.8398C59.8087 22.3453 60.4275 22.7506 61.1334 23.213C62.0885 23.8386 63.2031 24.5686 63.4031 25.7926C63.4392 26.0074 63.5105 26.5798 63.4101 27.4598ZM70.3851 29.7802C71.9366 29.7802 73.183 29.1988 73.3329 27.4066C73.3401 27.3159 73.3553 26.9527 73.3508 26.7763V19.8901H71.2151V26.9935C71.2169 27.119 71.2124 27.2567 71.1954 27.3607C71.155 27.5964 70.971 28.0574 70.386 28.0574C69.7955 28.0574 69.6178 27.5964 69.5721 27.3607C69.5559 27.2577 69.5514 27.119 69.5514 26.9935V19.8901H67.4184V26.7763C67.4139 26.9527 67.4292 27.3159 67.4363 27.4066C67.5844 29.1988 68.8317 29.7802 70.3851 29.7802ZM80.8803 29.7802H84.2308V19.8901H81.9004L82.0295 27.737H81.9775L79.8142 19.8901H76.3187V29.7802H78.634L78.505 21.6636H78.555L80.8803 29.7802ZM54.0289 20.8885L54.0934 29.7802H56.5385L56.3264 19.8901H52.3365L51.1275 27.4504H51.0755L49.8675 19.8901H45.8756L45.6593 29.7802H48.1096L48.1709 20.8885H48.224L49.8603 29.7802H52.3427L53.978 20.8885H54.0289ZM40.0807 29.7802L38.7868 20.8065H38.7321L37.4021 29.7802H34.7802L36.5808 19.8901H40.9L42.6923 29.7802H40.0807Z" fill="#2D3B40"/>
</svg>
