<svg width="132" height="45" viewBox="0 0 132 45" fill="none" xmlns="http://www.w3.org/2000/svg">
<path fill-rule="evenodd" clip-rule="evenodd" d="M104.822 27.246C105.461 26.8024 105.902 26.1424 105.99 25.189C106.024 24.8116 106.028 24.6553 106.031 24.4437V21.407H102.004V23.0588H103.17V24.701C103.171 24.844 103.165 25.0015 103.145 25.1313C103.092 25.4331 102.804 25.9512 101.981 25.9512C101.16 25.9512 100.874 25.4343 100.824 25.1313C100.801 25.0015 100.793 24.844 100.795 24.701V19.5268C100.795 19.3441 100.809 19.1421 100.844 18.9931C100.904 18.7118 101.146 18.1684 101.974 18.1684C102.839 18.1684 103.058 18.743 103.106 18.9931C103.14 19.1542 103.146 19.4246 103.143 19.4234V20.057H106.007V19.6795C106.007 19.6795 106.019 19.2948 105.981 18.9342C105.773 16.8159 104.01 16.1391 101.996 16.1391C99.9797 16.1391 98.2591 16.8195 98.0069 18.9342C97.9852 19.1229 97.9598 19.4787 97.9598 19.6795L97.9574 24.4437C97.961 24.6553 97.9659 24.8116 97.9984 25.189C98.1903 27.2472 99.9797 27.9817 101.996 27.9817C102.536 27.9817 103.058 27.9228 103.538 27.8062C94.375 31.7565 82.2389 35.2885 68.7068 37.6387C38.415 42.8946 12.6455 40.227 11.1517 31.6808C10.342 27.0476 16.8493 21.6378 27.798 16.8183C27.2273 17.2163 26.8243 17.7873 26.6916 18.5964C26.6095 19.1049 26.5975 19.5581 26.7169 20.1255C27.0004 21.4471 28.4402 22.232 29.7306 22.9355C30.6974 23.4626 31.5804 23.944 31.8305 24.5711C31.9415 24.8452 31.9077 25.1975 31.8558 25.4102C31.7605 25.7865 31.5047 26.17 30.7494 26.17C30.0375 26.17 29.6055 25.7637 29.6055 25.1422V24.047H26.56L26.5576 24.9234C26.5576 27.4455 28.5509 28.2065 30.6866 28.2065C32.7403 28.2065 34.432 27.5068 34.701 25.6218C34.8386 24.6445 34.736 24.0049 34.689 23.7633C34.4135 22.4015 32.8713 21.589 31.5493 20.8925C30.5722 20.3777 29.7154 19.9263 29.579 19.3633C29.5247 19.1361 29.5404 18.8957 29.5669 18.7671C29.6453 18.4064 29.8939 18.0085 30.6046 18.0085C31.2682 18.0085 31.6604 18.4172 31.6604 19.0351V19.7336H34.4923V18.939C34.4923 16.4745 32.2721 16.0898 30.6637 16.0898C30.0845 16.0898 29.5416 16.1523 29.0469 16.2738C38.1399 12.4256 50.0551 8.99463 63.2988 6.69729C93.5919 1.4378 119.357 4.10541 120.848 12.6504C121.644 17.1982 115.403 22.4938 104.822 27.246ZM71.0143 25.4237C70.75 27.4673 69.0732 28.2222 67.0403 28.2222C64.9253 28.2222 62.9491 27.3976 62.9491 24.6663L62.9527 23.7207H65.9683L65.9707 24.9082C65.9707 25.5723 66.3993 26.0168 67.1018 26.0168C67.8527 26.0168 68.1062 25.6039 68.1992 25.1936C68.2499 24.9608 68.2861 24.586 68.1738 24.2888C67.9262 23.6095 67.0515 23.0878 66.094 22.5166C64.816 21.7542 63.3904 20.9038 63.1109 19.4731C62.9938 18.855 63.0022 18.3684 63.0843 17.82C63.3801 15.8198 65.0182 15.1018 67.0161 15.1018C68.6096 15.1018 70.8127 15.52 70.8127 18.1869V19.047H68.0012V18.2908C68.0012 17.6201 67.6173 17.1835 66.9594 17.1835C66.2556 17.1835 66.0118 17.6083 65.9309 18.0055C65.9031 18.1383 65.8874 18.3987 65.9417 18.6459C66.0767 19.2556 66.9251 19.7444 67.8928 20.302C69.2024 21.0565 70.7305 21.9368 71.0047 23.413C71.0542 23.6721 71.152 24.3625 71.0143 25.4237ZM78.2042 28.2222C80.3314 28.2222 82.0403 27.5102 82.2457 25.3156C82.2556 25.2044 82.2765 24.7597 82.2703 24.5436V16.1111H79.3422V24.8097C79.3447 24.9633 79.3385 25.132 79.3152 25.2594C79.2598 25.5479 79.0076 26.1125 78.2054 26.1125C77.3959 26.1125 77.1523 25.5479 77.0896 25.2594C77.0674 25.1332 77.0613 24.9633 77.0613 24.8097V16.1111H74.1368V24.5436C74.1307 24.7597 74.1516 25.2044 74.1614 25.3156C74.3644 27.5102 76.0746 28.2222 78.2042 28.2222ZM91.1855 28.2222H95.4919V16.1111H92.4967L92.6625 25.7201H92.5957L89.8151 16.1111H85.3223V28.2222H88.2982L88.1324 18.2828H88.1967L91.1855 28.2222ZM58.8825 17.3336L58.9608 28.2222H61.9321L61.6744 16.1111H56.8258L55.3566 25.3691H55.2935L53.8255 16.1111H48.9744L48.7116 28.2222H51.6892L51.7638 17.3336H51.8282L53.8166 28.2222H56.8334L58.8206 17.3336H58.8825ZM42.304 28.2222L40.6409 17.2333H40.5706L38.8611 28.2222H35.4911L37.8054 16.1111H43.3571L45.6607 28.2222H42.304Z" fill="#2D3B40"/>
</svg>
