<svg width="165" height="55" fill="none" xmlns="http://www.w3.org/2000/svg"><path d="m39.61 11 14.434 34V11H39.61ZM15 11v34l14.442-34H15Zm13.216 27.16h6.731l2.751 6.838h6.026l-9.196-21.47-6.312 14.631Z" fill="#2D3B40"/><path fill-rule="evenodd" clip-rule="evenodd" d="M95.496 13.95v23.377c0 1.852.097 4.132.173 5.914h-4.513l-.296-2.378h-.106c-.758 1.466-2.408 2.712-4.38 2.712-4.322 0-6.465-4.692-6.465-10.618 0-7.22 3.196-10.731 6.68-10.731 1.822 0 3.002.877 3.595 2.147h.087V13.95h5.225ZM65.414 43.245l1.378-6.859h5.425l1.347 6.86h5.117l-5.768-28.537h-6.24l-6.35 28.536h5.09Zm5.248-17.067 1.06 6.181h-4.36l1.141-6.166c.245-1.315.56-3.32.832-5.06l.228-1.449h.115c.104.679.219 1.463.338 2.272v.001c.219 1.491.45 3.067.646 4.221Zm19.531 3.089c.078.407.078.851.078 1.231v5.458c0 .524-.061.973-.18 1.308-.487 1.68-1.382 2.072-2.16 2.072-1.699 0-2.802-2.28-2.802-6.284 0-3.485.773-6.463 2.876-6.463 1.225 0 1.987 1.27 2.189 2.678Zm16.088 14.31c-4.817 0-7.836-3.805-7.836-10.614 0-7.432 3.877-10.736 7.958-10.736 4.751 0 7.729 3.99 7.729 10.615 0 8.513-4.665 10.734-7.809 10.734h-.042Zm2.588-10.705c0 3.062-.494 6.762-2.489 6.762h-.046c-2.129 0-2.71-3.248-2.71-6.762 0-2.912.463-6.706 2.668-6.706 2.083 0 2.577 3.794 2.577 6.706Zm8.184-18.92h5.225v10.772h.084c1.03-1.59 2.401-2.497 4.391-2.497 3.941 0 5.919 4.407 5.919 10.17 0 7.282-2.952 11.18-6.776 11.18-1.822 0-3.036-.795-4.13-2.81h-.112l-.29 2.475h-4.486c.076-1.715.175-4.062.175-5.914V13.951Zm5.433 23.228a4.297 4.297 0 0 1-.208-1.322h.001v-5.774c0-.385.095-.942.196-1.299.286-1.137 1.121-2.196 2.113-2.196 1.999 0 2.86 2.526 2.86 6.195 0 4.031-.816 6.552-2.838 6.552-.711 0-1.599-.426-2.124-2.156Z" fill="#2D3B40"/><mask id="a" style="mask-type:alpha" maskUnits="userSpaceOnUse" x="134" y="22" width="16" height="22"><path fill-rule="evenodd" clip-rule="evenodd" d="M150 43.467V22.192h-15.16v21.275H150Z" fill="#fff"/></mask><g mask="url(#a)"><path fill-rule="evenodd" clip-rule="evenodd" d="M144.469 39.524c-2.481 0-4.479-1.218-4.541-4.958l9.923.03c.091-.603.148-1.375.148-2.746 0-5.99-2.483-9.658-6.967-9.658-4.639 0-8.192 4.151-8.192 11.063 0 6.441 3.064 10.212 8.671 10.212 2.052 0 4.191-.37 5.577-.957l-.704-3.698a11.336 11.336 0 0 1-3.915.712ZM142.7 25.993c1.656 0 2.523 2.034 2.496 4.938h-5.248c.057-2.214.861-4.938 2.752-4.938Z" fill="#2D3B40"/></g></svg>