<svg width="132" height="45" fill="none" xmlns="http://www.w3.org/2000/svg"><path d="m30.767 8 11.91 28V8h-11.91Zm-19.85 0v28l11.91-28h-11.91Zm9.925 22.585h5.6L28.733 36h5.012l-7.65-17-5.252 11.585Z" fill="#2D3B40"/><path fill-rule="evenodd" clip-rule="evenodd" d="M77.582 11v18.938c0 1.5.08 3.348.142 4.79H74.01l-.243-1.925h-.087C73.055 33.99 71.697 35 70.074 35c-3.557 0-5.321-3.802-5.321-8.602 0-5.85 2.63-8.694 5.498-8.694 1.5 0 2.47.71 2.958 1.74h.072V11h4.301Zm-24.76 23.732 1.135-5.557h4.465l1.108 5.557h4.212l-4.748-23.118H53.86l-5.227 23.118h4.19Zm4.32-13.827.872 5.008h-3.589l.94-4.996c.201-1.065.46-2.69.684-4.099l.188-1.174h.095c.085.55.18 1.185.278 1.841.18 1.208.37 2.485.532 3.42Zm16.075 2.502c.064.33.064.69.064.998v4.421c0 .425-.05.788-.148 1.06-.4 1.361-1.138 1.678-1.777 1.678-1.399 0-2.307-1.847-2.307-5.09 0-2.823.637-5.236 2.367-5.236 1.008 0 1.636 1.028 1.802 2.17ZM86.46 35c-3.966 0-6.45-3.082-6.45-8.598 0-6.021 3.191-8.698 6.55-8.698 3.91 0 6.361 3.233 6.361 8.6C92.92 33.2 89.08 35 86.493 35h-.034Zm2.13-8.672c0 2.48-.407 5.478-2.05 5.478h-.037c-1.752 0-2.23-2.63-2.23-5.478 0-2.36.38-5.433 2.196-5.433 1.714 0 2.12 3.074 2.12 5.433ZM95.324 11h4.3v8.727h.07c.847-1.288 1.976-2.023 3.614-2.023 3.243 0 4.871 3.57 4.871 8.24 0 5.899-2.429 9.056-5.577 9.056-1.5 0-2.499-.643-3.4-2.277h-.091l-.24 2.006H95.18c.063-1.389.145-3.29.145-4.79V11Zm4.471 18.818a3.436 3.436 0 0 1-.17-1.07v-4.679c0-.311.078-.763.16-1.052.237-.921.924-1.78 1.74-1.78 1.645 0 2.354 2.048 2.354 5.02 0 3.265-.671 5.307-2.335 5.307-.586 0-1.317-.344-1.749-1.746Z" fill="#2D3B40"/><mask id="a" style="mask-type:alpha" maskUnits="userSpaceOnUse" x="108" y="18" width="14" height="17"><path fill-rule="evenodd" clip-rule="evenodd" d="M121.083 35V18H108.18v17h12.903Z" fill="#fff"/></mask><g mask="url(#a)"><path fill-rule="evenodd" clip-rule="evenodd" d="M116.375 31.85c-2.111 0-3.812-.974-3.864-3.962l8.445.023c.077-.481.126-1.098.126-2.194 0-4.785-2.113-7.717-5.93-7.717-3.948 0-6.972 3.317-6.972 8.84 0 5.147 2.608 8.16 7.38 8.16 1.747 0 3.567-.296 4.747-.764l-.599-2.956a10.21 10.21 0 0 1-3.333.57Zm-1.505-10.813c1.409 0 2.147 1.626 2.124 3.946h-4.467c.049-1.769.733-3.946 2.343-3.946Z" fill="#2D3B40"/></g></svg>