<svg width="165" height="55" fill="none" xmlns="http://www.w3.org/2000/svg"><path d="M53.358 27.504v-.002.002Z" fill="#5B6977"/><path fill-rule="evenodd" clip-rule="evenodd" d="M145.22 35.962h.046c2.766 0 4.713-1.945 4.734-4.731.01-1.38-.382-2.641-1.105-3.554-.764-.965-1.834-1.48-3.094-1.49h-.026c-1.7 0-3.279 1.31-4.828 4.007l-.123.215-.079-.235a129.35 129.35 0 0 0-.946-2.689l-.002-.005c-.145-.403-.21-.583-.225-.641-.074-.292-.32-.473-.641-.473-.199 0-.409.068-.608.196a.718.718 0 0 0-.346.491l-.01.032c-1.55 4.908-2.828 7.292-3.91 7.292a.478.478 0 0 1-.372-.157c-.284-.319-.214-1.076-.118-2.124l.001-.004c.07-.768.15-1.639.117-2.562-.064-1.777-1.021-2.845-2.561-2.857-1.957 0-3.225 2.116-3.809 3.377l-.175.377-.038-.414c-.146-1.562-.662-3.427-2.291-3.44-1.9 0-3.347 2.266-4.23 4.166l-.237.51.024-.563c.105-2.535.191-4.031.256-4.447.064-.416.03-.695-.104-.855-.127-.15-.366-.206-.718-.183-.608.039-.919.415-1.387 1.675-.769 2.07-2.726 6.886-4.288 6.886-.31-.002-.555-.11-.735-.319-.655-.763-.393-2.824-.031-5.678h.001l.027-.216c.171-1.352-.121-1.64-.843-1.775a1.196 1.196 0 0 0-.22-.022c-.577 0-.847.561-1.386 2.12-.959 2.777-2.192 5.696-3.635 5.696a.935.935 0 0 1-.157-.013c-.765-.132-.748-1.284-.727-2.742v-.006c.012-.787.024-1.68-.095-2.485-.216-1.449-1.056-2.354-2.194-2.363-2.271 0-3.803 2.954-4.515 4.715l-.162.398-.053-.427a40.278 40.278 0 0 1-.276-3.405l-.002-.042.026-.034c4.25-5.434 6.157-9.355 6.182-12.715.017-2.147-.958-3.436-2.607-3.449-1.206 0-4.074 1.02-5.07 10.471a55.633 55.633 0 0 0-.302 5.34v.036l-.02.028c-1.944 2.86-6.094 7.776-10.157 7.776-3.671 0-6.6-3.016-6.6-8.341 0-7.139 4.975-11.521 8.718-11.521h.03c.814.006 1.512.237 2.019.667.525.447.8 1.073.794 1.811-.007.986-.323 1.492-.628 1.982l-.003.004c-.078.125-.155.248-.225.38-.073.133-.139.328-.043.494.099.17.35.277.656.28.892 0 2.24-1.31 2.254-3.285.016-2.066-1.698-4.195-4.755-4.195-4.627 0-10.857 5.163-10.857 13.53 0 5.918 3.653 10.008 8.602 10.008 3.512 0 6.986-2.553 10.062-6.82l.188-.258.014.322c.065 1.56.177 2.791.259 3.69v.012c.053.571.09.984.088 1.213-.003.505.078.854.249 1.07.171.215.443.316.855.32.691 0 .83-.48 1.103-1.659l.079-.337c.34-1.43 1.596-6.1 3.485-6.1.308.003.546.097.715.279.418.45.372 1.372.319 2.44-.033.666-.067 1.355-.001 2.026.178 1.81.947 2.696 2.353 2.707 1.444 0 2.95-1.579 3.745-3.047l.15-.277.058.31c.147.786.803 3.365 2.858 3.365 1.862 0 3.458-1.992 5.21-6.09l.228-.536-.013.584c-.013.517-.03 1.071-.048 1.636v.003c-.036 1.131-.073 2.3-.073 3.277-.001 1.134.112 1.567.628 1.567l.055.003a.83.83 0 0 0 .062.003c.495 0 .831-.301.999-.895 1.317-4.663 2.456-6.835 3.584-6.835 1.105.008 1.208 2.06 1.297 5.685l.006.254c.027 1.268.071 1.828.847 1.835.588 0 .735-.47 1.039-1.626.058-.22.122-.462.196-.723 1.063-3.749 1.945-5.278 3.043-5.278.94.007.992.991 1.009 1.315.037.693-.033 1.417-.101 2.118-.063.65-.128 1.322-.104 1.95.058 1.465.848 2.279 2.226 2.29 1.788 0 3.402-2.124 4.816-6.313l.098-.292.112.287c.256.657.59 1.549.9 2.612l.012.04-.017.04c-1.369 3.087-2.335 6.526-2.348 8.362-.019 2.42 1.059 3.993 2.746 4.006h.029c.917 0 3.056-.374 3.098-3.837.016-1.42-.313-3.426-.981-5.965l-.076-.291.246.166c.852.574 1.812.882 2.778.89ZM99.344 21.708a30.462 30.462 0 0 0-.213 2.511l-.018.401.223-.331c2.841-4.24 4.291-7.567 4.309-9.891.007-.946-.308-1.429-.935-1.434h-.006c-1.317 0-2.699 3.596-3.36 8.744Zm42.143 10.727-.021-.039-.041-.133.019-.04c1.303-2.727 2.796-4.29 4.095-4.29h.013c1.467.011 2.481 1.352 2.467 3.259-.009 1.273-.562 2.006-1.023 2.397a3.022 3.022 0 0 1-1.924.7c-1.717-.012-2.895-1.015-3.585-1.854Zm-.355 10.293c-.21.283-.502.427-.867.427-.42-.003-.736-.153-.95-.443-.601-.816-.432-2.733.549-6.215.117-.415.244-.833.379-1.242l.114-.348.1.352c1.142 4.018 1.37 6.53.675 7.47ZM55.158 28.855c-.602 2.46-1.756 5.43-3.837 5.6a2.253 2.253 0 0 1-.17.007c-.862 0-1.346-.575-1.438-1.707-.114-1.417.487-3.077 1.532-4.229.666-.733 1.416-1.137 2.113-1.137h.014c.88.007 1.497.724 1.78 1.393l.016.036-.01.037Zm19.113-13.758h-.03c-1.527.081-3.28 5.945-2.98 11.832.042.835.102 1.815.224 2.757l.042.323.165-.28c1.037-1.751 1.939-3.854 2.61-6.08 1.174-3.894 1.164-7.317.482-8.254-.144-.198-.317-.298-.513-.298ZM58.394 35.512c2.01-.164 3.606-2.942 4.199-4.128l.152-.306.058.338c.284 1.67 1.178 4.474 3.975 4.496h.024c1.21 0 2.582-.751 3.969-2.173l.102-.104.074.126c.933 1.586 2.186 2.429 3.52 2.36 1.963-.104 3.154-1.518 3.26-2.499a.836.836 0 0 0-.18-.644c-.176-.2-.433-.223-.621-.04l-.09.086c-.457.446-1.309 1.276-2.236 1.325-1.136.057-1.976-.633-2.52-2.057l-.022-.06.038-.05c3.124-4.15 5.316-10.483 5.1-14.73-.1-1.967-.663-4.31-2.776-4.31a2.8 2.8 0 0 0-.158.004c-.81.043-1.546.434-2.189 1.165-1.96 2.228-2.987 7.714-2.615 13.975.078 1.301.3 2.517.661 3.613l.02.06-.04.05c-1.16 1.376-2.304 2.134-3.221 2.134-2.209 0-2.134-3.76-1.96-6.88l.014-.236c.034-.538.056-.894-.116-1.108-.14-.174-.374-.26-.715-.263h-.04c-.786 0-.95.164-1.353 1.348-.836 2.462-2.487 6.59-4.148 6.59-.46-.003-.812-.163-1.052-.474-.806-1.045-.195-3.648.297-5.742v-.002c.089-.376.174-.738.246-1.072.108-.496.075-.859-.098-1.078-.173-.218-.519-.307-.976-.27-.71.058-1.166.36-1.385 1.734l-.044.286-.166-.203c-.31-.466-.916-1.021-2.04-1.021-.099 0-.2.004-.306.012-1.2.1-2.566.95-3.566 2.217-1.168 1.48-1.725 3.352-1.57 5.272.008.102.023.2.037.297l.008.053-.036.04c-.699.774-1.41 1.166-2.115 1.166-1.088-.009-1.713-.83-1.713-2.199 0-1.126.368-3.363.743-5.648.393-2.387.794-4.828.794-6.112 0-2.675-1.174-4.132-3.212-4.147h-.03c-2.976 0-5.295 3.43-7.514 10.485-.204.647-.425 1.393-.614 2.039l-.312 1.06.093-1.103c.206-2.458.347-4.85.42-7.108.11-3.41-.343-5.605-1.387-6.71-.563-.595-1.309-.888-2.28-.896h-.025c-3.588 0-5.334 6.056-6.6 10.444l-.056.195c-.29 1.01-.797 2.982-1.245 4.77l.021-.234c.277-3.046.746-8.205.71-11.203-.046-3.76-1.279-5.447-3.998-5.468h-.034c-1.452 0-2.46.733-3.05 1.348-.946.988-1.537 2.43-1.504 3.677.02.757.478 1.432.825 1.432.226 0 .351-.307.405-.489.842-2.825 1.93-4.199 3.328-4.199.58.005 1.01.178 1.334.53 1.092 1.19.893 4.402.533 10.233v.002c-.116 1.879-.248 4.009-.359 6.43A67.08 67.08 0 0 1 21 33.137v.002c-.107 1.683-.19 3.011.437 3.11.818.13 1.35-.207 1.622-1.03.241-.73.664-2.22 1.34-4.606a1659.45 1659.45 0 0 1 1.72-6.034c1.682-5.843 2.952-7.97 4.577-7.97 1.877 0 2.017 3.275 1.673 10.183l-.078 1.492c-.057 1.07-.118 2.22-.169 3.437-.01.254-.022.5-.034.736v.001c-.072 1.494-.13 2.674.291 3.126.131.14.31.21.546.212.813 0 1.058-.725 1.463-1.926l.008-.021c.07-.206.143-.425.225-.655.293-.82.578-1.629.856-2.42 2.373-6.741 4.285-12.17 6.761-12.17.83 0 1.476.684 1.476 2.02 0 1.549-.375 3.824-.748 6.088-.369 2.24-.736 4.47-.736 5.971 0 1.082.307 2.054.886 2.736.595.7 1.426 1.075 2.405 1.083h.022c.926 0 1.89-.458 2.868-1.359l.092-.084.073.1c.644.88 1.682 1.352 2.803 1.264 1.72-.136 3.163-1.691 3.7-3.158l.105-.287.105.287c.398 1.088 1.261 2.4 3.106 2.248Z" fill="#2D3B40"/><path fill-rule="evenodd" clip-rule="evenodd" d="M63.416 21.207a1.385 1.385 0 0 1 2.768.022 1.385 1.385 0 0 1-1.383 1.37v.113l-.011-.113a1.384 1.384 0 0 1-1.374-1.392Zm48.301 0a1.388 1.388 0 0 1 1.394-1.37c.763.006 1.379.63 1.374 1.392a1.386 1.386 0 0 1-1.384 1.37v.113l-.011-.113a1.384 1.384 0 0 1-1.373-1.392Z" fill="#2D3B40"/></svg>