<svg width="132" height="45" fill="none" xmlns="http://www.w3.org/2000/svg"><path d="M42.712 22.876v-.002.002Z" fill="#5B6977"/><path fill-rule="evenodd" clip-rule="evenodd" d="M117.105 29.372h.038c2.253 0 3.84-1.588 3.857-3.861.008-1.126-.311-2.156-.9-2.9-.623-.789-1.495-1.21-2.522-1.217h-.02c-1.386 0-2.673 1.07-3.934 3.27l-.101.176-.064-.192c-.318-.94-.601-1.725-.771-2.195l-.001-.004a11.047 11.047 0 0 1-.184-.523c-.06-.238-.26-.386-.523-.386a.922.922 0 0 0-.494.16.587.587 0 0 0-.283.401l-.008.026c-1.263 4.006-2.304 5.951-3.185 5.951a.39.39 0 0 1-.304-.128c-.231-.26-.174-.878-.095-1.733v-.004c.057-.627.123-1.337.095-2.09-.052-1.45-.832-2.323-2.087-2.332-1.594 0-2.627 1.727-3.103 2.756l-.142.308-.032-.339c-.119-1.274-.539-2.796-1.866-2.806-1.548 0-2.728 1.848-3.447 3.4l-.193.415.02-.46c.085-2.068.155-3.289.208-3.628.052-.34.025-.568-.085-.698-.103-.123-.298-.168-.585-.15-.495.032-.749.339-1.13 1.368-.626 1.69-2.22 5.62-3.494 5.62a.758.758 0 0 1-.599-.26c-.534-.624-.32-2.306-.025-4.635l.023-.177c.14-1.102-.1-1.338-.687-1.448a.978.978 0 0 0-.18-.018c-.47 0-.69.458-1.129 1.731-.781 2.265-1.786 4.648-2.961 4.648a.76.76 0 0 1-.129-.01c-.623-.108-.609-1.048-.592-2.239v-.004c.01-.643.02-1.371-.078-2.028-.175-1.183-.86-1.922-1.787-1.929-1.85 0-3.099 2.41-3.68 3.848l-.13.325-.044-.349c-.078-.623-.18-1.61-.225-2.779l-.001-.034.02-.027c3.464-4.435 5.017-7.635 5.038-10.377.014-1.752-.78-2.804-2.125-2.815-.982 0-3.319.833-4.13 8.545a45.476 45.476 0 0 0-.246 4.36v.028l-.017.023c-1.584 2.333-4.965 6.346-8.276 6.346-2.991 0-5.378-2.462-5.378-6.807 0-5.826 4.054-9.403 7.104-9.403h.025c.663.005 1.231.193 1.644.545.428.364.652.876.648 1.478-.006.804-.263 1.217-.512 1.617l-.003.004a5.754 5.754 0 0 0-.183.309c-.06.11-.113.268-.035.404.08.139.285.226.535.228.726 0 1.824-1.07 1.836-2.68.013-1.687-1.384-3.424-3.875-3.424-3.77 0-8.846 4.213-8.846 11.041 0 4.83 2.976 8.168 7.009 8.168 2.862 0 5.692-2.084 8.199-5.565l.153-.211.011.262c.054 1.274.145 2.278.211 3.011v.001l.001.01v.002c.042.465.073.801.072.988-.004.412.063.697.202.872.14.176.361.26.697.262.563 0 .675-.391.898-1.354l.065-.275c.277-1.167 1.3-4.977 2.84-4.977.25.002.444.078.582.227.34.366.303 1.119.26 1.99-.027.545-.055 1.107-.001 1.654.145 1.478.772 2.2 1.918 2.21 1.176 0 2.403-1.29 3.05-2.487l.123-.226.047.254c.12.64.655 2.745 2.329 2.745 1.517 0 2.818-1.626 4.245-4.97l.186-.438-.011.477c-.01.423-.024.877-.039 1.339a91.808 91.808 0 0 0-.06 2.673c0 .925.092 1.279.513 1.279l.045.002a1.312 1.312 0 0 0 .05.003c.403 0 .677-.246.814-.73 1.073-3.806 2.001-5.579 2.92-5.579.9.007.985 1.681 1.057 4.64l.005.207c.022 1.035.058 1.492.69 1.497.479 0 .599-.383.847-1.326.047-.18.099-.377.159-.59.867-3.06 1.585-4.308 2.48-4.308.766.006.808.81.822 1.073.03.566-.027 1.157-.083 1.729-.051.53-.104 1.08-.084 1.59.047 1.197.691 1.861 1.814 1.87 1.457 0 2.772-1.733 3.924-5.152l.08-.238.091.234c.209.537.481 1.264.733 2.132l.01.033-.014.032c-1.115 2.519-1.902 5.326-1.913 6.824-.015 1.975.863 3.259 2.237 3.27h.024c.748 0 2.49-.305 2.524-3.132.014-1.158-.255-2.796-.799-4.868l-.062-.237.201.136a4.106 4.106 0 0 0 2.263.725Zm-37.38-11.633a24.843 24.843 0 0 0-.174 2.05l-.014.327.18-.271c2.317-3.46 3.498-6.175 3.512-8.072.006-.772-.25-1.166-.762-1.17h-.004c-1.074 0-2.2 2.934-2.739 7.136Zm34.339 8.754-.017-.031-.034-.11.015-.032c1.062-2.225 2.278-3.501 3.337-3.501h.011c1.195.01 2.022 1.103 2.01 2.66-.008 1.039-.458 1.637-.834 1.956-.429.364-1 .572-1.568.572-1.398-.01-2.358-.829-2.92-1.514Zm-.29 8.4a.835.835 0 0 1-.707.35c-.341-.004-.599-.125-.773-.363-.49-.666-.352-2.23.447-5.071.095-.34.199-.68.308-1.015l.093-.283.082.287c.931 3.279 1.116 5.33.55 6.096Zm-70.052-11.32c-.49 2.008-1.431 4.43-3.127 4.57a1.832 1.832 0 0 1-.138.005c-.703 0-1.098-.468-1.172-1.392-.093-1.157.397-2.511 1.248-3.452.542-.598 1.154-.928 1.721-.928h.012c.717.006 1.22.591 1.451 1.137l.012.03-.007.03Zm15.573-11.228h-.024c-1.245.066-2.673 4.852-2.43 9.656.035.681.084 1.481.184 2.25l.034.263.135-.227c.844-1.43 1.58-3.146 2.126-4.962.957-3.179.949-5.972.392-6.738-.117-.16-.257-.242-.417-.242Zm-12.937 16.66c1.638-.133 2.938-2.4 3.421-3.369l.125-.25.047.276c.231 1.363.96 3.652 3.239 3.67h.019c.985 0 2.104-.613 3.234-1.773l.083-.085.06.103c.76 1.294 1.782 1.982 2.868 1.925 1.6-.084 2.57-1.238 2.656-2.039a.683.683 0 0 0-.146-.526c-.143-.163-.352-.182-.506-.032l-.073.07c-.373.364-1.066 1.042-1.822 1.082-.926.046-1.61-.517-2.053-1.68l-.018-.048.03-.041c2.546-3.387 4.333-8.556 4.156-12.022-.081-1.604-.54-3.517-2.262-3.517a2.33 2.33 0 0 0-.128.004c-.66.034-1.26.354-1.784.95-1.598 1.819-2.434 6.295-2.13 11.406.063 1.061.244 2.053.538 2.948l.017.05-.034.04c-.945 1.123-1.877 1.741-2.624 1.741-1.8 0-1.739-3.069-1.597-5.614l.012-.193c.027-.44.045-.73-.095-.904-.114-.143-.305-.213-.583-.215h-.033c-.64 0-.773.134-1.101 1.1-.682 2.009-2.027 5.379-3.38 5.379-.376-.003-.662-.134-.858-.388-.656-.852-.158-2.977.242-4.685v-.002c.072-.307.142-.602.2-.875.088-.405.062-.701-.08-.88-.14-.178-.422-.25-.794-.22-.58.047-.95.294-1.13 1.415l-.035.233-.135-.166c-.253-.38-.747-.833-1.663-.833-.08 0-.163.003-.249.01-.978.082-2.09.775-2.905 1.809a6.128 6.128 0 0 0-1.28 4.303c.007.083.019.162.03.242l.007.044-.03.033c-.569.63-1.148.95-1.723.95-.886-.006-1.395-.677-1.395-1.794 0-.92.3-2.744.605-4.61.32-1.948.647-3.94.647-4.987 0-2.183-.956-3.372-2.617-3.385h-.025c-2.424 0-4.314 2.799-6.122 8.557a96.09 96.09 0 0 0-.5 1.664l-.255.866.076-.9c.168-2.007.283-3.958.343-5.802.09-2.783-.28-4.574-1.131-5.475-.459-.486-1.066-.726-1.857-.732h-.02c-2.924 0-4.347 4.942-5.378 8.524l-.046.159c-.237.823-.65 2.433-1.015 3.892l.018-.19c.225-2.486.607-6.697.578-9.143-.037-3.07-1.042-4.446-3.258-4.463h-.027c-1.184 0-2.005.598-2.486 1.1-.77.806-1.252 1.984-1.225 3 .016.62.39 1.17.672 1.17.184 0 .286-.25.33-.4.686-2.305 1.573-3.426 2.712-3.426.472.004.823.145 1.087.433.89.97.728 3.592.434 8.35v.002a320.306 320.306 0 0 0-.292 5.248c-.016.34-.037.667-.056.978v.002c-.087 1.372-.155 2.457.356 2.537.666.106 1.1-.17 1.321-.84.198-.596.541-1.812 1.093-3.76.368-1.302.83-2.932 1.402-4.924 1.37-4.769 2.404-6.504 3.728-6.504 1.53 0 1.644 2.672 1.363 8.31-.019.39-.04.796-.063 1.218-.046.873-.096 1.812-.137 2.805l-.028.6v.001c-.059 1.22-.105 2.183.237 2.552.107.114.252.171.445.172.662 0 .862-.591 1.192-1.571l.006-.018c.057-.168.117-.347.184-.534.238-.67.47-1.33.697-1.975 1.934-5.502 3.491-9.933 5.51-9.933.676 0 1.202.559 1.202 1.649 0 1.264-.306 3.121-.61 4.969-.3 1.828-.6 3.647-.6 4.873 0 .883.25 1.676.723 2.233.484.572 1.162.877 1.96.883h.017c.755 0 1.54-.373 2.337-1.108l.075-.07.06.083a2.544 2.544 0 0 0 2.284 1.031c1.401-.11 2.577-1.38 3.014-2.577l.086-.234.086.234c.324.888 1.027 1.959 2.53 1.835Z" fill="#2D3B40"/><path fill-rule="evenodd" clip-rule="evenodd" d="M50.64 18.345c.004-.781.51-1.417 1.136-1.417.622.006 1.124.652 1.12 1.44-.005.78-.51 1.416-1.128 1.416v.117l-.009-.117c-.622-.006-1.124-.652-1.12-1.439Zm39.365 0c.005-.781.51-1.417 1.137-1.417.622.006 1.124.652 1.12 1.44-.005.78-.511 1.416-1.128 1.416v.117l-.01-.117c-.621-.006-1.124-.652-1.119-1.439Z" fill="#2D3B40"/></svg>