<svg width="110" height="26" fill="none" xmlns="http://www.w3.org/2000/svg"><path fill-rule="evenodd" clip-rule="evenodd" d="M13.15 25.965c7.206 0 13.106-5.845 13.106-12.983C26.256 5.844 20.356 0 13.106 0 5.9 0 0 5.844 0 12.982c0 7.18 5.9 13.024 13.15 12.983Zm83.743 0C104.1 25.965 110 20.12 110 12.982 110 5.844 104.1 0 96.85 0c-7.206 0-13.106 5.844-13.106 12.982 0 7.18 5.9 13.024 13.15 12.983ZM86.104 13.024c0-5.844 4.847-10.645 10.747-10.645 5.942 0 10.747 4.76 10.747 10.645 0 5.844-4.847 10.645-10.747 10.645-5.9 0-10.747-4.8-10.747-10.645Zm-34.266 7.514a1.204 1.204 0 0 1 1.685 0c.464.459.464 1.21 0 1.67-3.076 3.047-7.543 4.383-11.842 3.548-6.069-1.169-10.536-6.554-10.536-12.732 0-6.22 4.467-11.563 10.578-12.774 4.299-.834 8.766.501 11.843 3.549.463.459.463 1.21 0 1.67a1.204 1.204 0 0 1-1.686 0c-2.529-2.505-6.153-3.59-9.693-2.923-5.016 1.002-8.682 5.385-8.682 10.478S37.17 22.5 42.187 23.46c3.498.668 7.164-.418 9.65-2.922ZM13.107 2.379c-5.9 0-10.747 4.8-10.747 10.645 0 5.844 4.847 10.645 10.747 10.645 5.9 0 10.747-4.8 10.747-10.645 0-5.886-4.805-10.645-10.747-10.645ZM68.78 25.422c.632 0 1.18-.501 1.18-1.169V2.963h8.429c.632 0 1.18-.542 1.18-1.168 0-.626-.506-1.169-1.18-1.169H59.255c-.632 0-1.18.543-1.18 1.169s.506 1.169 1.18 1.169H67.6v21.289c0 .626.548 1.169 1.18 1.169Z" fill="#fff"/></svg>