<svg width="120" height="50" viewBox="0 0 120 50" fill="none" xmlns="http://www.w3.org/2000/svg">
<path d="M31.8132 14L41.7033 36.7473V14H31.8132Z" fill="#2D3B40"/>
<path d="M15 14V36.7473L24.8901 14H15Z" fill="#2D3B40"/>
<path d="M23.9011 32.337H28.6236L30.5534 36.7473H34.7802L28.329 22.9011L23.9011 32.337Z" fill="#2D3B40"/>
<path fill-rule="evenodd" clip-rule="evenodd" d="M69.7004 16.967V31.7949C69.7004 32.9698 69.7662 34.416 69.8186 35.5459H66.7337L66.5319 34.0378H66.4593C65.9409 34.9678 64.813 35.7582 63.4655 35.7582C60.5115 35.7582 59.0467 32.7815 59.0467 29.0228C59.0467 24.4426 61.2308 22.2161 63.6124 22.2161C64.8577 22.2161 65.664 22.7725 66.0692 23.5777H66.1292V16.967H69.7004ZM49.1394 35.5482L50.0816 31.1974H53.7895L54.7098 35.5482H58.2075L54.2649 17.4475H50.0005L45.6594 35.5482H49.1394ZM52.7266 24.7224L53.451 28.6431H50.4708L51.2509 24.7317C51.4183 23.8979 51.633 22.6262 51.8193 21.5227L51.8193 21.5227C51.8744 21.1963 51.9271 20.8846 51.9752 20.6033H52.0538C52.1247 21.0336 52.2035 21.5311 52.2847 22.0445L52.2847 22.0446L52.2847 22.0446L52.2848 22.0448L52.2848 22.0448C52.4344 22.9905 52.5926 23.9901 52.7266 24.7224ZM66.076 26.6816C66.1292 26.9396 66.1292 27.2217 66.1292 27.4627V30.9246C66.1292 31.2571 66.087 31.5415 66.0059 31.7539C65.6733 32.8203 65.0612 33.0683 64.5302 33.0683C63.3685 33.0683 62.6145 31.6221 62.6145 29.0825C62.6145 26.8722 63.143 24.9828 64.58 24.9828C65.4175 24.9828 65.9384 25.788 66.076 26.6816ZM77.0716 35.7582C73.779 35.7582 71.7156 33.3449 71.7156 29.0259C71.7156 24.3116 74.3657 22.2161 77.1551 22.2161C80.4021 22.2161 82.4376 24.7472 82.4376 28.9492C82.4376 34.3493 79.2489 35.7582 77.1003 35.7582H77.0716ZM78.8403 28.9686C78.8403 30.9107 78.5026 33.2574 77.1391 33.2574H77.1079C75.6524 33.2574 75.2556 31.1974 75.2556 28.9686C75.2556 27.121 75.5722 24.7146 77.0792 24.7146C78.5026 24.7146 78.8403 27.121 78.8403 28.9686ZM84.4343 16.967H88.0055V23.8001H88.0629C88.767 22.7919 89.7041 22.2161 91.0642 22.2161C93.7574 22.2161 95.1099 25.0114 95.1099 28.6671C95.1099 33.286 93.0921 35.7582 90.4783 35.7582C89.2331 35.7582 88.4031 35.2545 87.6551 33.9758H87.5792L87.3808 35.5459H84.3144C84.3668 34.4586 84.4343 32.9698 84.4343 31.7949V16.967ZM88.1473 31.7012C88.0722 31.4958 88.0055 31.1897 88.0055 30.8626H88.0063V27.2C88.0063 26.9559 88.0714 26.6025 88.1397 26.3762C88.3356 25.6547 88.9063 24.9828 89.5843 24.9828C90.9503 24.9828 91.5387 26.5855 91.5387 28.9128C91.5387 31.4694 90.9815 33.0683 89.5995 33.0683C89.1132 33.0683 88.5061 32.7986 88.1473 31.7012Z" fill="#2D3B40"/>
<mask id="mask0_1473_568" style="mask-type:alpha" maskUnits="userSpaceOnUse" x="94" y="21" width="11" height="15">
<path fill-rule="evenodd" clip-rule="evenodd" d="M105 35.7583V21.9121H94.1208V35.7583H105Z" fill="white"/>
</mask>
<g mask="url(#mask0_1473_568)">
<path fill-rule="evenodd" clip-rule="evenodd" d="M101.031 33.1923C99.2506 33.1923 97.8164 32.3995 97.772 29.9655L104.893 29.9846C104.958 29.5926 104.999 29.09 104.999 28.1979C104.999 24.3 103.217 21.9121 99.9996 21.9121C96.6702 21.9121 94.1208 24.6141 94.1208 29.1123C94.1208 33.3044 96.3192 35.7583 100.344 35.7583C101.816 35.7583 103.351 35.5173 104.346 35.1357L103.841 32.7287C102.942 33.0322 101.991 33.1892 101.031 33.1923ZM99.7612 24.3859C100.95 24.3859 101.572 25.7098 101.553 27.5999H97.7862C97.827 26.1591 98.4041 24.3859 99.7612 24.3859Z" fill="#2D3B40"/>
</g>
</svg>
