<svg width="132" height="45" viewBox="0 0 132 45" fill="none" xmlns="http://www.w3.org/2000/svg">
<path d="M30.7669 8L42.6767 36V8H30.7669Z" fill="#2D3B40"/>
<path d="M10.9173 8V36L22.8271 8H10.9173Z" fill="#2D3B40"/>
<path d="M20.8421 30.5852H26.4428L28.7314 36H33.7444L26.0934 19L20.8421 30.5852Z" fill="#2D3B40"/>
<path fill-rule="evenodd" clip-rule="evenodd" d="M77.582 11V29.9381C77.582 31.4387 77.6613 33.2856 77.7243 34.7288H74.0095L73.7665 32.8026H73.679C73.0548 33.9904 71.6966 35 70.074 35C66.5167 35 64.7528 31.1981 64.7528 26.3975C64.7528 20.5477 67.3829 17.704 70.2509 17.704C71.7504 17.704 72.7214 18.4147 73.2094 19.4431H73.2815V11H77.582ZM52.8223 34.7318L53.9569 29.1749H58.422L59.5302 34.7318H63.7422L58.9944 11.6137H53.8593L48.6316 34.7318H52.8223ZM57.142 20.9051L58.0143 25.9126H54.4255L55.3649 20.917C55.5665 19.8522 55.8251 18.2279 56.0495 16.8185L56.0495 16.8182C56.1158 16.4015 56.1792 16.0035 56.2372 15.6443H56.3318C56.4172 16.1939 56.5121 16.8293 56.6099 17.4851L56.6099 17.4851L56.6099 17.4853C56.7901 18.6932 56.9806 19.9698 57.142 20.9051ZM73.2175 23.4072C73.2815 23.7368 73.2815 24.0971 73.2815 24.405V28.8264C73.2815 29.2511 73.2307 29.6143 73.1331 29.8855C72.7325 31.2475 71.9954 31.5643 71.356 31.5643C69.957 31.5643 69.0492 29.7173 69.0492 26.4737C69.0492 23.6507 69.6856 21.2375 71.416 21.2375C72.4245 21.2375 73.0518 22.266 73.2175 23.4072ZM86.4585 35.0001C82.4935 35.0001 80.0088 31.9178 80.0088 26.4016C80.0088 20.3806 83.2001 17.7041 86.5591 17.7041C90.4692 17.7041 92.9204 20.9368 92.9204 26.3036C92.9204 33.2006 89.0804 35.0001 86.493 35.0001H86.4585ZM88.5884 26.3283C88.5884 28.8088 88.1817 31.806 86.5398 31.806H86.5022C84.7495 31.806 84.2716 29.1751 84.2716 26.3283C84.2716 23.9686 84.6529 20.8953 86.4676 20.8953C88.1817 20.8953 88.5884 23.9686 88.5884 26.3283ZM95.3248 11H99.6253V19.7272H99.6944C100.542 18.4394 101.671 17.704 103.309 17.704C106.552 17.704 108.18 21.2743 108.18 25.9432C108.18 31.8425 105.751 35 102.603 35C101.103 35 100.104 34.3566 99.2034 32.7234H99.1119L98.8729 34.7288H95.1804C95.2435 33.3401 95.3248 31.4387 95.3248 29.9381V11ZM99.796 29.8182C99.7056 29.5559 99.6252 29.165 99.6252 28.7473H99.6263V24.0694C99.6263 23.7576 99.7045 23.3063 99.7869 23.0172C100.023 22.0957 100.71 21.2375 101.526 21.2375C103.171 21.2375 103.88 23.2845 103.88 26.2569C103.88 29.5223 103.209 31.5643 101.545 31.5643C100.959 31.5643 100.228 31.2198 99.796 29.8182Z" fill="#2D3B40"/>
<mask id="mask0_1473_849" style="mask-type:alpha" maskUnits="userSpaceOnUse" x="108" y="18" width="14" height="17">
<path fill-rule="evenodd" clip-rule="evenodd" d="M121.083 35V18H108.18V35H121.083Z" fill="white"/>
</mask>
<g mask="url(#mask0_1473_849)">
<path fill-rule="evenodd" clip-rule="evenodd" d="M116.375 31.8495C114.264 31.8495 112.563 30.8762 112.511 27.8878L120.956 27.9112C121.033 27.4299 121.082 26.8129 121.082 25.7175C121.082 20.9318 118.969 18 115.152 18C111.204 18 108.18 21.3174 108.18 26.8402C108.18 31.9872 110.788 35 115.56 35C117.307 35 119.127 34.7042 120.307 34.2356L119.708 31.2804C118.642 31.653 117.514 31.8457 116.375 31.8495ZM114.87 21.0371C116.279 21.0371 117.017 22.6626 116.994 24.9832H112.527C112.576 23.2142 113.26 21.0371 114.87 21.0371Z" fill="#2D3B40"/>
</g>
</svg>
