<svg width="132" height="53" viewBox="0 0 132 53" fill="none" xmlns="http://www.w3.org/2000/svg">
<path d="M40.4944 22.7572H29.1051V26.0754H37.1816C36.7825 30.7285 32.8401 32.7135 29.119 32.7135C24.358 32.7135 20.2027 29.0348 20.2027 23.8791C20.2027 18.8563 24.1635 14.9872 29.1291 14.9872C32.9609 14.9872 35.2183 17.3857 35.2183 17.3857L37.5844 14.9799C37.5844 14.9799 34.5481 11.6599 29.0093 11.6599C21.9559 11.6599 16.5 17.5059 16.5 23.8199C16.5 30.0064 21.6324 36.0399 29.189 36.0399C35.8349 36.0399 40.7 31.5689 40.7 24.9581C40.7 23.5622 40.4944 22.7563 40.4944 22.7563V22.7572Z" fill="#2D3B40"/>
<path fill-rule="evenodd" clip-rule="evenodd" d="M41.8 28.0245C41.8 23.7802 45.0165 20.1401 49.5066 20.1401C53.197 20.1401 57.2 22.8517 57.2 28.1179C57.2 32.7114 53.7594 36.0401 49.5598 36.0401C44.9209 36.0401 41.8 32.3326 41.8 28.0245ZM53.8515 28.0967C53.8515 25.1135 51.7596 23.2629 49.5509 23.2629H49.5518C47.0712 23.2629 45.1644 25.3204 45.1644 28.0736C45.1644 30.8868 47.0942 32.9193 49.5412 32.9193C51.7685 32.9193 53.8515 31.0162 53.8515 28.0967Z" fill="#2D3B40"/>
<path fill-rule="evenodd" clip-rule="evenodd" d="M59.4 28.0245C59.4 23.7802 62.6165 20.1401 67.1066 20.1401C70.797 20.1401 74.8 22.8517 74.8 28.1179C74.8 32.7114 71.3593 36.0401 67.1597 36.0401C62.5209 36.0401 59.4 32.3326 59.4 28.0245ZM71.4515 28.0967C71.4515 25.1135 69.3597 23.2629 67.1509 23.2629H67.1518C64.6703 23.2629 62.7645 25.3204 62.7645 28.0736C62.7645 30.8868 64.6942 32.9193 67.1412 32.9193C69.3685 32.9193 71.4515 31.0162 71.4515 28.0967Z" fill="#2D3B40"/>
<path fill-rule="evenodd" clip-rule="evenodd" d="M75.9 27.8105C75.9 23.7541 79.5342 20.1401 84.157 20.1401C86.1688 20.1401 87.6849 20.8351 88.7936 21.9021V20.6014H92.4V34.3961C92.4 39.8166 88.897 42.4001 84.3 42.4001C80.0975 42.4001 77.737 40.0922 76.5647 37.8789L79.87 36.646C80.329 37.6354 81.6454 39.3786 84.2732 39.3786C86.9924 39.3786 88.7936 37.7933 88.7936 35.1437V33.6307C87.8319 34.6272 86.5285 35.4961 84.0765 35.4961C80.1125 35.4961 75.9 32.4317 75.9 27.8105ZM89.0847 27.8268C89.0847 24.8774 86.757 23.1494 84.4918 23.1494C82.0647 23.1494 79.6833 24.9078 79.6833 27.8553C79.6833 30.6922 81.9773 32.4782 84.4411 32.4782C86.7629 32.4782 89.0847 30.826 89.0847 27.8268Z" fill="#2D3B40"/>
<path fill-rule="evenodd" clip-rule="evenodd" d="M100.1 28.0712C100.1 23.3443 103.674 20.1401 107.933 20.1401V20.1411C111.291 20.1411 113.828 22.2581 114.916 24.7941L115.5 26.0889L104.241 30.5076C104.913 31.6916 105.999 32.9144 108.359 32.9144C110.461 32.9144 111.72 31.8337 112.474 30.7281L115.376 32.5545C114.074 34.2018 111.894 36.0401 108.341 36.0401C104.085 36.0401 100.1 33.0731 100.1 28.0712ZM111.186 24.891C110.717 23.9663 109.613 23.1948 108.078 23.1948H108.079C105.648 23.1948 103.343 25.562 103.667 27.8627L111.186 24.891Z" fill="#2D3B40"/>
<path d="M94.6 34.98H97.9V12.72H94.6V34.98V34.98Z" fill="#2D3B40"/>
</svg>
