<svg width="85" height="40" viewBox="0 0 85 40" fill="none" xmlns="http://www.w3.org/2000/svg">
<path d="M25.8641 17.7381H18.334V20.0518H23.6738C23.4099 23.2964 20.8034 24.6805 18.3431 24.6805C15.1954 24.6805 12.4481 22.1154 12.4481 18.5203C12.4481 15.018 15.0668 12.3201 18.3498 12.3201C20.8832 12.3201 22.3757 13.9925 22.3757 13.9925L23.9401 12.315C23.9401 12.315 21.9327 10 18.2706 10C13.6072 10 10 14.0763 10 18.479C10 22.7929 13.3933 27 18.3894 27C22.7834 27 26 23.8824 26 19.2727C26 18.2994 25.8641 17.7374 25.8641 17.7374V17.7381Z" fill="#2D3B40"/>
<path fill-rule="evenodd" clip-rule="evenodd" d="M26 20.9505C26 17.7472 28.5064 15 32.0052 15C34.8808 15 38 17.0465 38 21.0209C38 24.4877 35.319 27 32.0466 27C28.4319 27 26 24.2019 26 20.9505ZM35.3908 21.0049C35.3908 18.7534 33.7608 17.3568 32.0397 17.3568H32.0404C30.1074 17.3568 28.6217 18.9096 28.6217 20.9874C28.6217 23.1106 30.1254 24.6446 32.0321 24.6446C33.7677 24.6446 35.3908 23.2083 35.3908 21.0049Z" fill="#2D3B40"/>
<path fill-rule="evenodd" clip-rule="evenodd" d="M37 20.9505C37 17.7472 39.5064 15 43.0052 15C45.8808 15 49 17.0465 49 21.0209C49 24.4877 46.319 27 43.0466 27C39.4319 27 37 24.2019 37 20.9505ZM46.3908 21.0049C46.3908 18.7534 44.7608 17.3568 43.0397 17.3568H43.0404C41.1067 17.3568 39.6217 18.9096 39.6217 20.9874C39.6217 23.1106 41.1254 24.6446 43.0321 24.6446C44.7677 24.6446 46.3908 23.2083 46.3908 21.0049Z" fill="#2D3B40"/>
<path fill-rule="evenodd" clip-rule="evenodd" d="M49 20.5133C49 17.5976 51.6431 15 55.0051 15C56.4682 15 57.5708 15.4995 58.3772 16.2664V15.3315H61V25.2469C61 29.143 58.4523 31 55.1091 31C52.0527 31 50.336 29.3411 49.4834 27.7502L51.8873 26.8641C52.2211 27.5752 53.1785 28.8281 55.0896 28.8281C57.0672 28.8281 58.3772 27.6887 58.3772 25.7842V24.6967C57.6777 25.413 56.7298 26.0375 54.9465 26.0375C52.0636 26.0375 49 23.8349 49 20.5133ZM58.5889 20.5248C58.5889 18.4049 56.896 17.1629 55.2486 17.1629C53.4834 17.1629 51.7514 18.4267 51.7514 20.5454C51.7514 22.5845 53.4198 23.8682 55.2117 23.8682C56.9003 23.8682 58.5889 22.6807 58.5889 20.5248Z" fill="#2D3B40"/>
<path fill-rule="evenodd" clip-rule="evenodd" d="M64.8438 22.1754C64.8438 19.1561 67.2011 17.1094 70.0095 17.1094V17.11C72.2242 17.11 73.8971 18.4622 74.6149 20.0822L75 20.9092L67.5747 23.7317C68.0181 24.488 68.7339 25.269 70.2904 25.269C71.6766 25.269 72.507 24.5787 73.0041 23.8725L74.9181 25.0391C74.0596 26.0914 72.6221 27.2656 70.2788 27.2656C67.4717 27.2656 64.8438 25.3704 64.8438 22.1754ZM71.9531 20.2478C71.6374 19.6442 70.8949 19.1406 69.8628 19.1406H69.8634C68.2284 19.1406 66.6776 20.6857 66.8955 22.1875L71.9531 20.2478Z" fill="#2D3B40"/>
<path d="M62 27H65V11H62V27Z" fill="#2D3B40"/>
</svg>
