<svg width="120" height="50" viewBox="0 0 120 50" fill="none" xmlns="http://www.w3.org/2000/svg">
<path d="M36.8131 21.4691H26.4592V24.5995H33.8015C33.4386 28.9892 29.8547 30.8619 26.4718 30.8619C22.1437 30.8619 18.3661 27.3914 18.3661 22.5275C18.3661 17.789 21.9669 14.1389 26.481 14.1389C29.9644 14.1389 32.0166 16.4017 32.0166 16.4017L34.1677 14.1321C34.1677 14.1321 31.4074 11 26.3721 11C19.9599 11 15 16.5151 15 22.4717C15 28.308 19.6658 34 26.5355 34C32.5772 34 37 29.7821 37 23.5455C37 22.2285 36.8131 21.4683 36.8131 21.4683V21.4691Z" fill="#2D3B40"/>
<path fill-rule="evenodd" clip-rule="evenodd" d="M38 26.4381C38 22.4341 40.9241 19 45.006 19C48.3609 19 52 21.5581 52 26.5261C52 30.8597 48.8722 34 45.0543 34C40.8372 34 38 30.5023 38 26.4381ZM48.9559 26.5061C48.9559 23.6917 47.0542 21.946 45.0463 21.946H45.0471C42.792 21.946 41.0586 23.887 41.0586 26.4843C41.0586 29.1383 42.8129 31.0558 45.0374 31.0558C47.0623 31.0558 48.9559 29.2603 48.9559 26.5061Z" fill="#2D3B40"/>
<path fill-rule="evenodd" clip-rule="evenodd" d="M54 26.4381C54 22.4341 56.9241 19 61.006 19C64.3609 19 68 21.5581 68 26.5261C68 30.8597 64.8722 34 61.0543 34C56.8372 34 54 30.5023 54 26.4381ZM64.9559 26.5061C64.9559 23.6917 63.0542 21.946 61.0463 21.946H61.0471C58.7912 21.946 57.0586 23.887 57.0586 26.4843C57.0586 29.1383 58.8129 31.0558 61.0374 31.0558C63.0623 31.0558 64.9559 29.2603 64.9559 26.5061Z" fill="#2D3B40"/>
<path fill-rule="evenodd" clip-rule="evenodd" d="M69 26.2362C69 22.4094 72.3038 19 76.5063 19C78.3353 19 79.7135 19.6556 80.7215 20.6622V19.4351H84V32.449C84 37.5627 80.8154 40 76.6364 40C72.8159 40 70.67 37.8227 69.6042 35.7347L72.6091 34.5716C73.0264 35.5049 74.2231 37.1494 76.612 37.1494C79.084 37.1494 80.7215 35.6539 80.7215 33.1543V31.7269C79.8472 32.667 78.6622 33.4867 76.4332 33.4867C72.8295 33.4867 69 30.5958 69 26.2362ZM80.9861 26.2514C80.9861 23.469 78.8699 21.8388 76.8107 21.8388C74.6042 21.8388 72.4393 23.4976 72.4393 26.2783C72.4393 28.9546 74.5247 30.6395 76.7646 30.6395C78.8754 30.6395 80.9861 29.0809 80.9861 26.2514Z" fill="#2D3B40"/>
<path fill-rule="evenodd" clip-rule="evenodd" d="M91 26.4822C91 22.0228 94.2496 19 98.1208 19V19.0009C101.174 19.0009 103.48 20.9981 104.469 23.3906L105 24.612L94.7646 28.7806C95.3757 29.8976 96.3624 31.0512 98.5079 31.0512C100.419 31.0512 101.563 30.0317 102.249 28.9887L104.887 30.7116C103.704 32.2657 101.722 34 98.4921 34C94.6226 34 91 31.2009 91 26.4822ZM101.078 23.482C100.652 22.6096 99.6481 21.8818 98.2531 21.8818H98.254C96.0441 21.8818 93.948 24.1149 94.2425 26.2854L101.078 23.482Z" fill="#2D3B40"/>
<path d="M86 33H89V12H86V33V33Z" fill="#2D3B40"/>
</svg>
