<svg width="165" height="70" fill="none" xmlns="http://www.w3.org/2000/svg"><path fill-rule="evenodd" clip-rule="evenodd" d="M83 0c6.567 0 12.657 1.788 17.903 4.935 1.413.843 2.11 1.403 2.11 2.2 0 3.348-9.392 6.825-21.499 6.825-12.235 0-19.132-3.174-19.132-6.127 0-1 .89-1.78 2.467-2.752C70.114 1.853 76.387 0 83 0Zm23.113 8.823c.147.23.22.477.22.807 0 3.89-11.896 10.768-30.836 10.768-13.913 0-16.518-5.163-16.518-8.447 0-1.174.449-2.376 1.44-3.595.055-.074.009-.101-.055-.046a35.104 35.104 0 0 0-4.925 5.118c-.698.88-1.129 1.66-1.129 2.128 0 6.806 17.06 11.74 33.01 11.74 16.995 0 24.581-5.55 24.581-10.429 0-1.743-.679-2.76-2.412-4.733a41.334 41.334 0 0 0-3.321-3.356c-.055-.046-.091-.01-.055.045ZM48.871 27.241c.34-1.78 1.477-5.22 2.504-7.256.028-.054.083-.045.064.019-.174.697-.311 1.366-.311 2.036 0 6.971 11.556 12.492 25.406 12.492 12.785 0 38.127-5.86 37.825-14.95-.01-.064.036-.073.064-.018.816 1.66 1.779 4.026 2.293 6.053.459 1.816.44 3.164.082 4.44-1.944 6.933-13.95 10.73-29.404 10.73-25.334 0-36.193-7.291-38.34-11.85-.266-.568-.33-.935-.183-1.696Zm27.094 21.792c-17.913 0-26.36-8.346-27.892-14.042-.018-.083-.073-.064-.073.009 0 1.917.193 4.394.523 6.035.156.798.807 2.054 1.76 3.054 4.34 4.522 15.153 10.86 33.882 10.86 25.516 0 31.35-8.502 32.542-11.3.853-2 1.293-5.613 1.293-8.649 0-.734-.018-1.32-.046-1.899 0-.091-.055-.1-.073-.008-1.275 6.841-23.077 15.94-41.916 15.94Zm33.147 8.401c-5.659 4.651-15.124 6.999-23.736 6.999-16.363 0-29.608-5.073-33.973-14.354-.028-.074.018-.1.064-.037 4.687 6.797 16.656 10.355 27.782 10.355 15.739 0 30.982-4.834 36.247-12.584.055-.082.101-.045.073.028a33.297 33.297 0 0 1-2.109 4.375c-1.321 2.265-2.797 3.953-4.348 5.218ZM83 70c-8.08 0-15.528-2.76-21.462-7.356-.055-.045-.028-.1.046-.064 3.843 2.146 10.648 4.549 21.416 4.549 12.391 0 20.261-4.026 23.021-5.87.074-.045.111 0 .037.064C99.904 66.716 91.842 70 83 70Z" fill="#2D3B40"/></svg>