<svg width="165" height="55" fill="none" xmlns="http://www.w3.org/2000/svg"><path fill-rule="evenodd" clip-rule="evenodd" d="m135.725 37.735-4.622-5.036 3.064-5.282c.273-.467.027-.77-.412-.77h-2.652c-.437 0-.683.138-.902.495l-1.723 3.027-3.064-3.33c2.08-1.155 4.049-2.696 4.049-5.446 0-3.22-2.243-5.393-5.907-5.393-3.583 0-5.962 2.338-5.962 5.75 0 1.348.575 2.888 1.832 4.347-2.57 1.43-4.266 3.136-4.266 6.328 0 4.154 3.145 6.575 7.138 6.575 3.226 0 5.169-1.403 6.563-3.274l2.078 2.31c.301.359.548.469 1.012.469h3.473c.438 0 .657-.385.301-.77Zm-30.053.77c-.355 0-.601-.248-.601-.606V20.154h-5.989c-.356 0-.602-.247-.602-.605V17.1c0-.358.246-.606.602-.606h15.943c.356 0 .602.247.602.606v2.448c0 .358-.246.605-.602.605h-5.989V37.9c0 .358-.246.606-.602.606h-2.762Zm16.708-2.972c-1.806 0-3.337-1.347-3.337-3.245 0-1.927 1.094-2.89 2.79-3.853l4.43 4.788c-.957 1.458-2.134 2.31-3.883 2.31Zm3.363-14.058c0-1.129-.71-2.064-2.132-2.064-1.422 0-2.242.908-2.242 2.118 0 .936.491 1.762 1.613 2.972 1.941-1.128 2.761-1.815 2.761-3.026Zm-34.723-.908-3.173 9.08h6.317l-3.144-9.08Zm10.118 17.222-7.41-20.744c-.138-.385-.411-.55-.82-.55h-3.666c-.41 0-.656.165-.792.55L81.038 37.79c-.137.358.11.716.465.716h2.68c.41 0 .656-.193.793-.578l1.614-4.676h8.832l1.614 4.676c.137.386.383.578.793.578h2.845c.382 0 .601-.358.464-.716Zm42.272.11c0 .358-.247.606-.602.606h-2.762c-.355 0-.601-.248-.601-.606V20.154h-5.99c-.356 0-.601-.247-.601-.605V17.1c0-.358.245-.606.601-.606h15.944c.355 0 .601.247.601.606v2.448c0 .358-.246.605-.601.605h-5.989V37.9ZM42.5 0c5.16 0 9.945 1.405 14.067 3.877 1.11.663 1.658 1.103 1.658 1.73 0 2.63-7.38 5.361-16.893 5.361-9.613 0-15.032-2.493-15.032-4.814 0-.785.699-1.398 1.938-2.162C32.375 1.456 37.304 0 42.5 0Zm18.16 6.933c.116.18.173.374.173.634 0 3.055-9.347 8.46-24.228 8.46-10.932 0-12.979-4.057-12.979-6.637 0-.922.353-1.866 1.131-2.825.044-.057.008-.08-.043-.036a27.576 27.576 0 0 0-3.87 4.021c-.547.692-.886 1.305-.886 1.672 0 5.348 13.404 9.225 25.936 9.225 13.354 0 19.314-4.36 19.314-8.194 0-1.37-.534-2.17-1.895-3.719a32.344 32.344 0 0 0-2.61-2.637c-.043-.037-.071-.007-.043.036Zm-44.976 14.47c.267-1.398 1.16-4.1 1.968-5.7.022-.043.065-.036.05.014-.137.548-.245 1.074-.245 1.6 0 5.477 9.08 9.816 19.962 9.816 10.046 0 29.958-4.605 29.72-11.747-.007-.05.029-.058.05-.015.642 1.305 1.399 3.164 1.802 4.757.36 1.427.346 2.486.065 3.488-1.528 5.448-10.961 8.431-23.104 8.431-19.905 0-28.437-5.729-30.123-9.31-.21-.447-.26-.735-.145-1.334Zm21.288 17.123c-14.074 0-20.71-6.558-21.914-11.033-.015-.065-.058-.05-.058.007 0 1.506.151 3.452.41 4.742.123.627.635 1.614 1.384 2.4 3.41 3.552 11.906 8.532 26.621 8.532 20.049 0 24.632-6.68 25.569-8.878.67-1.571 1.016-4.41 1.016-6.796 0-.577-.014-1.038-.036-1.492 0-.072-.043-.079-.058-.007-1.001 5.376-18.131 12.525-32.934 12.525Zm26.045 6.601c-4.447 3.654-11.884 5.499-18.65 5.499-12.857 0-23.263-3.986-26.693-11.279-.022-.057.014-.078.05-.029 3.682 5.34 13.087 8.137 21.829 8.137 12.366 0 24.343-3.798 28.48-9.887.043-.065.079-.036.057.021a26.154 26.154 0 0 1-1.657 3.438c-1.038 1.78-2.198 3.106-3.416 4.1ZM42.5 55c-6.35 0-12.2-2.17-16.863-5.78-.043-.035-.022-.079.036-.05 3.02 1.686 8.366 3.574 16.827 3.574 9.736 0 15.92-3.163 18.088-4.612.058-.036.087 0 .03.05A27.396 27.396 0 0 1 42.5 55Z" fill="#2D3B40"/></svg>