<svg width="132" height="60" fill="none" xmlns="http://www.w3.org/2000/svg"><path fill-rule="evenodd" clip-rule="evenodd" d="M66 0c5.63 0 10.85 1.533 15.346 4.23 1.21.723 1.808 1.202 1.808 1.886 0 2.87-8.05 5.85-18.428 5.85-10.487 0-16.399-2.72-16.399-5.252 0-.857.763-1.525 2.115-2.359C54.955 1.588 60.332 0 66 0Zm19.811 7.563c.126.197.189.409.189.692 0 3.333-10.197 9.23-26.43 9.23-11.927 0-14.16-4.427-14.16-7.241 0-1.006.385-2.037 1.235-3.082.047-.063.008-.087-.048-.04a30.085 30.085 0 0 0-4.221 4.388c-.598.754-.967 1.422-.967 1.823 0 5.834 14.623 10.063 28.294 10.063 14.567 0 21.07-4.756 21.07-8.939 0-1.493-.583-2.366-2.068-4.056a35.292 35.292 0 0 0-2.847-2.877c-.047-.04-.078-.008-.047.039ZM36.747 23.349c.29-1.525 1.266-4.473 2.146-6.219.024-.047.07-.039.055.016-.15.598-.267 1.171-.267 1.746 0 5.975 9.905 10.707 21.777 10.707 10.959 0 32.68-5.024 32.421-12.814-.008-.055.031-.063.055-.016.7 1.423 1.525 3.451 1.965 5.189.394 1.556.378 2.712.071 3.805-1.667 5.943-11.957 9.198-25.204 9.198-21.714 0-31.022-6.25-32.862-10.158-.228-.487-.283-.801-.157-1.454ZM59.97 42.03c-15.354 0-22.594-7.155-23.907-12.037-.016-.07-.063-.055-.063.008 0 1.643.165 3.766.448 5.173.134.684.692 1.76 1.51 2.618 3.718 3.876 12.987 9.308 29.04 9.308 21.872 0 26.872-7.288 27.894-9.685C95.622 35.7 96 32.602 96 30c0-.63-.016-1.132-.04-1.628 0-.078-.046-.086-.062-.007-1.093 5.865-19.78 13.663-35.928 13.663Zm28.412 7.2c-4.85 3.987-12.964 5.999-20.346 5.999-14.025 0-25.377-4.348-29.12-12.303-.023-.063.017-.087.056-.032 4.017 5.826 14.276 8.876 23.813 8.876 13.49 0 26.556-4.144 31.069-10.786.047-.07.086-.04.063.023a28.536 28.536 0 0 1-1.809 3.75c-1.132 1.942-2.397 3.389-3.726 4.474ZM66 60c-6.926 0-13.31-2.366-18.396-6.305-.047-.04-.024-.086.04-.055 3.293 1.84 9.126 3.9 18.356 3.9 10.621 0 17.366-3.452 19.733-5.032.062-.04.094 0 .031.055A29.886 29.886 0 0 1 66 60Z" fill="#2D3B40"/></svg>