<svg width="77" height="30" fill="none" xmlns="http://www.w3.org/2000/svg"><path fill-rule="evenodd" clip-rule="evenodd" d="M39 0c2.815 0 5.425.766 7.673 2.115.605.361.904.601.904.943 0 1.435-4.025 2.925-9.214 2.925-5.243 0-8.2-1.36-8.2-2.626 0-.428.382-.763 1.058-1.18A14.891 14.891 0 0 1 39 0Zm9.906 3.781a.607.607 0 0 1 .094.346c0 1.667-5.098 4.615-13.215 4.615-5.963 0-7.08-2.213-7.08-3.62 0-.503.193-1.018.617-1.541.024-.031.004-.043-.023-.02a15.048 15.048 0 0 0-2.111 2.194c-.299.377-.484.711-.484.912 0 2.917 7.312 5.031 14.148 5.031 7.283 0 10.534-2.378 10.534-4.47 0-.746-.29-1.182-1.034-2.028-.483-.55-.94-.998-1.423-1.438-.023-.02-.039-.004-.023.02Zm-24.533 7.894c.146-.763.633-2.237 1.073-3.11.012-.023.036-.02.028.008-.075.299-.134.586-.134.873 0 2.987 4.953 5.354 10.889 5.354 5.48 0 16.34-2.512 16.21-6.408-.004-.027.016-.031.028-.008.35.712.763 1.726.983 2.595.196.778.188 1.356.035 1.902-.833 2.972-5.979 4.6-12.602 4.6-10.857 0-15.511-3.126-16.43-5.08-.115-.243-.142-.4-.08-.726Zm11.612 9.34c-7.677 0-11.297-3.578-11.953-6.019-.009-.035-.032-.027-.032.004 0 .822.082 1.883.224 2.587.067.341.346.88.755 1.308 1.86 1.938 6.494 4.655 14.52 4.655 10.936 0 13.436-3.644 13.947-4.843C53.81 17.85 54 16.3 54 15c0-.315-.008-.566-.02-.814 0-.039-.023-.043-.031-.004-.546 2.933-9.89 6.832-17.964 6.832Zm14.206 3.6c-2.425 1.993-6.482 2.999-10.173 2.999-7.013 0-12.689-2.174-14.56-6.152-.011-.031.008-.043.028-.015 2.008 2.912 7.138 4.437 11.906 4.437 6.746 0 13.279-2.071 15.535-5.393.023-.035.043-.02.031.012a14.227 14.227 0 0 1-.904 1.875c-.566.971-1.199 1.695-1.863 2.237ZM39 30a14.981 14.981 0 0 1-9.198-3.153c-.024-.02-.012-.043.02-.027 1.646.92 4.563 1.95 9.178 1.95 5.31 0 8.683-1.726 9.866-2.516.032-.02.047 0 .016.027A14.943 14.943 0 0 1 39 30Z" fill="#2D3B40"/></svg>