<svg width="85" height="40" fill="none" xmlns="http://www.w3.org/2000/svg"><path fill-rule="evenodd" clip-rule="evenodd" d="M43 0c3.753 0 7.233 1.022 10.23 2.82.808.482 1.206.802 1.206 1.257 0 1.914-5.367 3.9-12.285 3.9-6.992 0-10.933-1.813-10.933-3.501 0-.571.508-1.017 1.41-1.572A19.855 19.855 0 0 1 43 0Zm13.208 5.042a.809.809 0 0 1 .125.461c0 2.222-6.797 6.153-17.62 6.153-7.95 0-9.44-2.95-9.44-4.827 0-.67.257-1.357.823-2.054.032-.042.006-.058-.031-.027a20.057 20.057 0 0 0-2.814 2.925c-.399.503-.645.949-.645 1.216 0 3.89 9.748 6.709 18.863 6.709 9.711 0 14.046-3.171 14.046-5.96 0-.995-.388-1.577-1.379-2.704a23.525 23.525 0 0 0-1.897-1.918c-.031-.027-.052-.005-.031.026Zm-32.71 10.524c.194-1.017.844-2.982 1.43-4.146.016-.031.048-.026.037.01-.1.4-.178.782-.178 1.164 0 3.984 6.604 7.139 14.518 7.139 7.306 0 21.787-3.35 21.614-8.543-.005-.037.021-.042.037-.01.466.948 1.017 2.3 1.31 3.458.262 1.038.252 1.808.047 2.537-1.11 3.962-7.971 6.132-16.802 6.132-14.477 0-20.682-4.166-21.908-6.771-.152-.325-.189-.535-.105-.97ZM38.98 28.02c-10.236 0-15.063-4.77-15.938-8.024-.01-.047-.042-.037-.042.005 0 1.095.11 2.51.299 3.449.089.455.461 1.173 1.006 1.745 2.48 2.584 8.658 6.205 19.36 6.205 14.581 0 17.915-4.858 18.596-6.457C62.748 23.8 63 21.735 63 20c0-.42-.01-.755-.026-1.085 0-.052-.031-.057-.042-.005-.729 3.91-13.187 9.109-23.952 9.109Zm18.941 4.8c-3.233 2.658-8.642 4-13.563 4-9.35 0-16.919-2.899-19.414-8.203-.015-.042.011-.057.037-.02 2.678 3.883 9.518 5.917 15.875 5.917 8.994 0 17.705-2.763 20.713-7.191.032-.047.058-.026.042.015-.346.87-.77 1.756-1.205 2.5-.755 1.295-1.599 2.26-2.485 2.983ZM43 40a19.976 19.976 0 0 1-12.264-4.204c-.032-.025-.016-.057.026-.036 2.196 1.226 6.085 2.6 12.238 2.6 7.08 0 11.578-2.301 13.155-3.355.042-.026.063 0 .021.037A19.924 19.924 0 0 1 43 40Z" fill="#2D3B40"/></svg>