<svg width="120" height="50" fill="none" xmlns="http://www.w3.org/2000/svg"><path fill-rule="evenodd" clip-rule="evenodd" d="M60 0a24.71 24.71 0 0 1 12.788 3.525c1.01.602 1.507 1.002 1.507 1.572 0 2.391-6.709 4.874-15.357 4.874-8.739 0-13.665-2.266-13.665-4.376 0-.714.635-1.271 1.762-1.965C50.795 1.323 55.276 0 60 0Zm16.51 6.302c.104.164.157.341.157.577 0 2.778-8.498 7.691-22.026 7.691-9.938 0-11.799-3.688-11.799-6.034 0-.838.32-1.696 1.029-2.568.039-.052.006-.072-.04-.033a25.071 25.071 0 0 0-3.518 3.656c-.498.63-.806 1.186-.806 1.52 0 4.862 12.186 8.386 23.579 8.386 12.14 0 17.557-3.964 17.557-7.45 0-1.244-.484-1.971-1.722-3.38a29.405 29.405 0 0 0-2.372-2.397c-.04-.033-.066-.007-.04.032ZM35.621 19.458c.243-1.271 1.055-3.728 1.789-5.183.02-.039.059-.032.046.014-.125.498-.223.976-.223 1.454 0 4.98 8.255 8.923 18.147 8.923 9.133 0 27.234-4.186 27.018-10.679-.007-.046.026-.052.046-.013.583 1.186 1.271 2.876 1.638 4.324.327 1.297.314 2.26.059 3.17-1.39 4.954-9.965 7.666-21.004 7.666-18.095 0-25.852-5.208-27.384-8.465-.19-.405-.236-.668-.132-1.211Zm19.353 15.566c-12.795 0-18.828-5.962-19.923-10.03-.013-.06-.052-.046-.052.006 0 1.37.138 3.138.373 4.31.112.57.577 1.468 1.258 2.182 3.1 3.23 10.823 7.757 24.2 7.757 18.227 0 22.394-6.073 23.245-8.07.61-1.43.924-4.01.924-6.179 0-.524-.013-.943-.033-1.356 0-.066-.039-.072-.052-.006-.91 4.887-16.483 11.386-29.94 11.386Zm23.677 6c-4.043 3.322-10.803 5-16.955 5-11.688 0-21.148-3.624-24.266-10.254-.02-.052.013-.071.045-.026 3.348 4.855 11.898 7.397 19.845 7.397 11.242 0 22.13-3.453 25.89-8.989.04-.059.072-.032.053.02a23.779 23.779 0 0 1-1.507 3.125c-.944 1.618-1.998 2.824-3.105 3.728ZM60 50a24.97 24.97 0 0 1-15.33-5.255c-.04-.032-.02-.071.033-.045 2.745 1.533 7.606 3.25 15.297 3.25 8.851 0 14.472-2.877 16.444-4.193.052-.033.079 0 .026.045A24.905 24.905 0 0 1 60 50Z" fill="#2D3B40"/></svg>