<svg width="132" height="45" fill="none" xmlns="http://www.w3.org/2000/svg"><path fill-rule="evenodd" clip-rule="evenodd" d="m109.344 30.232-3.746-4.198 2.483-4.404c.222-.39.022-.642-.333-.642h-2.15c-.355 0-.554.114-.731.412l-1.397 2.524-2.484-2.775c1.686-.964 3.282-2.249 3.282-4.542 0-2.683-1.818-4.496-4.788-4.496-2.905 0-4.833 1.95-4.833 4.794 0 1.124.466 2.408 1.485 3.624-2.084 1.193-3.458 2.615-3.458 5.276 0 3.464 2.55 5.482 5.786 5.482 2.615 0 4.19-1.17 5.32-2.73l1.685 1.927c.244.298.444.39.82.39h2.815c.356 0 .533-.32.244-.642Zm-24.361.642c-.288 0-.488-.206-.488-.505V15.575h-4.854c-.289 0-.488-.207-.488-.505v-2.041c0-.299.199-.505.488-.505h12.924c.288 0 .487.206.487.505v2.04c0 .299-.2.505-.487.505H87.71V30.37c0 .299-.2.505-.488.505h-2.24Zm13.544-2.477c-1.464 0-2.705-1.124-2.705-2.706 0-1.607.887-2.41 2.261-3.212l3.591 3.992c-.776 1.215-1.73 1.926-3.147 1.926Zm2.726-11.721c0-.941-.576-1.721-1.729-1.721s-1.817.757-1.817 1.766c0 .78.398 1.468 1.307 2.477 1.574-.94 2.239-1.513 2.239-2.522Zm-28.148-.757-2.572 7.57h5.121l-2.549-7.57Zm8.203 14.358L75.3 12.982c-.111-.32-.332-.458-.665-.458h-2.971c-.332 0-.531.137-.642.458l-6.008 17.295c-.11.299.089.597.377.597h2.172c.333 0 .532-.16.643-.482l1.308-3.899h7.16l1.308 3.9c.111.32.31.481.643.481h2.306c.31 0 .487-.298.377-.597Zm34.266.092c0 .299-.2.505-.488.505h-2.239c-.288 0-.487-.206-.487-.505V15.575h-4.856c-.288 0-.487-.207-.487-.505v-2.041c0-.299.199-.505.487-.505h12.925c.288 0 .487.206.487.505v2.04c0 .299-.199.505-.487.505h-4.855V30.37ZM33.457 0c4.198 0 8.091 1.135 11.445 3.13.903.536 1.348.89 1.348 1.397 0 2.124-6.004 4.329-13.743 4.329-7.82 0-12.23-2.013-12.23-3.887 0-.634.569-1.129 1.577-1.745C25.22 1.175 29.23 0 33.457 0Zm14.775 5.597c.094.146.14.303.14.512 0 2.467-7.604 6.831-19.71 6.831-8.895 0-10.56-3.275-10.56-5.358 0-.745.287-1.507.92-2.281.036-.047.006-.064-.035-.03a22.345 22.345 0 0 0-3.148 3.247c-.446.559-.721 1.054-.721 1.35 0 4.318 10.905 7.448 21.1 7.448 10.865 0 15.713-3.52 15.713-6.616 0-1.105-.433-1.751-1.541-3.002a26.214 26.214 0 0 0-2.123-2.13c-.035-.029-.058-.005-.035.03ZM12.14 16.893c.217-1.129.944-3.31 1.6-4.603.018-.034.053-.028.041.012-.11.443-.199.867-.199 1.292 0 4.422 7.387 7.925 16.24 7.925 8.174 0 24.373-3.718 24.18-9.484-.006-.041.023-.047.04-.012.523 1.053 1.138 2.554 1.466 3.84.294 1.152.282 2.007.053 2.816-1.243 4.4-8.917 6.808-18.796 6.808-16.194 0-23.136-4.625-24.508-7.518-.17-.36-.21-.593-.117-1.076Zm16.82 14.213c-11.451 0-16.851-5.295-17.83-8.908-.012-.053-.047-.04-.047.006 0 1.216.123 2.787.334 3.828.1.506.516 1.303 1.126 1.938 2.773 2.869 9.686 6.89 21.658 6.89 16.31 0 20.04-5.395 20.802-7.17.545-1.268.826-3.56.826-5.486 0-.466-.011-.838-.03-1.205 0-.058-.034-.064-.046-.005-.815 4.34-14.751 10.112-26.794 10.112Zm21.188 5.33c-3.617 2.95-9.668 4.44-15.173 4.44-10.46 0-18.926-3.218-21.717-9.106-.018-.047.012-.064.041-.024 2.996 4.312 10.647 6.57 17.76 6.57 10.06 0 19.805-3.067 23.17-7.984.035-.052.064-.029.047.018a21.016 21.016 0 0 1-1.349 2.775c-.844 1.438-1.788 2.508-2.779 3.31Zm-16.692 7.971a22.455 22.455 0 0 1-13.72-4.666c-.034-.03-.017-.064.03-.04 2.457 1.36 6.807 2.885 13.69 2.885 7.921 0 12.951-2.554 14.716-3.724.047-.029.07 0 .024.041a22.387 22.387 0 0 1-14.74 5.504Z" fill="#2D3B40"/></svg>