<svg width="165" height="55" fill="none" xmlns="http://www.w3.org/2000/svg"><path d="M48.19 21.539H32.437v4.646h11.172c-.552 6.515-6.005 9.295-11.153 9.295-6.585 0-12.333-5.151-12.333-12.37 0-7.033 5.479-12.451 12.347-12.451 5.3 0 8.423 3.358 8.423 3.358l3.273-3.368S39.965 6 32.304 6C22.547 6 15 14.186 15 23.027c0 8.662 7.1 17.11 17.552 17.11 9.193 0 15.923-6.26 15.923-15.517 0-1.954-.284-3.082-.284-3.082Z" fill="#2D3B40"/><path fill-rule="evenodd" clip-rule="evenodd" d="M49.998 29.055c0-5.857 4.632-10.88 11.096-10.88 5.313 0 11.076 3.741 11.076 11.009 0 6.34-4.953 10.933-11 10.933-6.678 0-11.172-5.116-11.172-11.062Zm17.351.1c0-4.117-3.011-6.671-6.19-6.671h-.001c-3.57 0-6.316 2.84-6.316 6.639 0 3.882 2.779 6.687 6.302 6.687 3.206 0 6.205-2.626 6.205-6.655Zm6.782-.1c0-5.857 4.631-10.88 11.096-10.88 5.313 0 11.076 3.741 11.076 11.009 0 6.34-4.953 10.933-11 10.933-6.678 0-11.172-5.116-11.172-11.062Zm17.351.1c0-4.117-3.011-6.671-6.19-6.671h-.002.001c-3.572 0-6.316 2.84-6.316 6.639 0 3.882 2.779 6.687 6.302 6.687 3.206 0 6.205-2.626 6.205-6.655Zm6.819-.007c0-5.797 4.664-10.962 10.597-10.962 2.582 0 4.528.993 5.95 2.518v-1.86h4.629V38.56c0 7.748-4.496 11.44-10.396 11.44-5.393 0-8.422-3.298-9.927-6.462l4.242-1.762c.589 1.414 2.279 3.906 5.651 3.906 3.49 0 5.801-2.266 5.801-6.053v-2.162c-1.234 1.424-2.907 2.666-6.053 2.666-5.088 0-10.494-4.38-10.494-10.985Zm16.921.023c0-4.215-2.987-6.685-5.894-6.685-3.115 0-6.172 2.513-6.172 6.726 0 4.055 2.944 6.607 6.107 6.607 2.979 0 5.959-2.361 5.959-6.648Zm14.536-.055c0-6.53 4.698-10.957 10.296-10.957v.001c4.414 0 7.748 2.925 9.179 6.429l.767 1.789-14.799 6.104c.883 1.636 2.31 3.326 5.412 3.326 2.763 0 4.418-1.493 5.409-3.02l3.815 2.522c-1.711 2.276-4.576 4.816-9.247 4.816-5.595 0-10.832-4.099-10.832-11.01Zm14.572-4.393c-.617-1.278-2.068-2.344-4.085-2.344h.001c-3.195 0-6.226 3.27-5.8 6.45l9.884-4.107Z" fill="#2D3B40"/><path d="M122.701 39.475h4.862V7.135h-4.862v32.34Z" fill="#2D3B40"/></svg>