<svg width="132" height="53" fill="none" xmlns="http://www.w3.org/2000/svg"><path d="M40.494 22.757H29.105v3.318h8.077c-.4 4.654-4.342 6.639-8.063 6.639-4.761 0-8.916-3.68-8.916-8.835 0-5.023 3.96-8.892 8.926-8.892 3.832 0 6.09 2.399 6.09 2.399l2.365-2.406s-3.036-3.32-8.575-3.32c-7.053 0-12.509 5.846-12.509 12.16 0 6.186 5.132 12.22 12.689 12.22 6.646 0 11.511-4.471 11.511-11.082 0-1.396-.206-2.202-.206-2.202v.001Z" fill="#2D3B40"/><path fill-rule="evenodd" clip-rule="evenodd" d="M41.8 28.024c0-4.244 3.217-7.884 7.707-7.884 3.69 0 7.693 2.712 7.693 7.978 0 4.593-3.44 7.922-7.64 7.922-4.64 0-7.76-3.707-7.76-8.015Zm12.052.073c0-2.984-2.092-4.834-4.301-4.834-2.48 0-4.387 2.057-4.387 4.81 0 2.814 1.93 4.846 4.377 4.846 2.228 0 4.31-1.903 4.31-4.822Zm5.548-.073c0-4.244 3.217-7.884 7.707-7.884 3.69 0 7.693 2.712 7.693 7.978 0 4.593-3.44 7.922-7.64 7.922-4.64 0-7.76-3.707-7.76-8.015Zm12.051.073c0-2.984-2.091-4.834-4.3-4.834-2.48 0-4.386 2.057-4.386 4.81 0 2.814 1.93 4.846 4.376 4.846 2.227 0 4.31-1.903 4.31-4.822Zm4.449-.287c0-4.056 3.634-7.67 8.257-7.67 2.012 0 3.528.695 4.637 1.762v-1.3H92.4v13.794c0 5.42-3.503 8.004-8.1 8.004-4.203 0-6.563-2.308-7.735-4.521l3.305-1.233c.459.99 1.775 2.733 4.403 2.733 2.72 0 4.52-1.586 4.52-4.235V33.63c-.961.996-2.265 1.865-4.717 1.865-3.963 0-8.176-3.064-8.176-7.686Zm13.185.017c0-2.95-2.328-4.678-4.593-4.678-2.427 0-4.809 1.759-4.809 4.706 0 2.837 2.294 4.623 4.758 4.623 2.322 0 4.644-1.652 4.644-4.651Zm11.015.244c0-4.727 3.574-7.93 7.833-7.93 3.358 0 5.895 2.117 6.983 4.653l.584 1.295-11.259 4.419c.672 1.184 1.758 2.406 4.118 2.406 2.102 0 3.361-1.08 4.115-2.186l2.902 1.826c-1.302 1.648-3.482 3.486-7.035 3.486-4.256 0-8.241-2.967-8.241-7.969Zm11.086-3.18c-.469-.925-1.573-1.696-3.108-1.696h.001c-2.431 0-4.736 2.367-4.412 4.668l7.519-2.972Z" fill="#2D3B40"/><path d="M94.6 34.98h3.3V12.72h-3.3v22.26Z" fill="#2D3B40"/></svg>