<svg width="85" height="40" fill="none" xmlns="http://www.w3.org/2000/svg"><path d="M25.864 17.738h-7.53v2.314h5.34c-.264 3.244-2.87 4.628-5.33 4.628-3.149 0-5.896-2.565-5.896-6.16 0-3.502 2.619-6.2 5.902-6.2 2.533 0 4.026 1.672 4.026 1.672l1.564-1.677S21.933 10 18.27 10C13.608 10 10 14.076 10 18.479 10 22.793 13.393 27 18.39 27c4.393 0 7.61-3.118 7.61-7.727 0-.974-.136-1.536-.136-1.536v.001Z" fill="#2D3B40"/><path fill-rule="evenodd" clip-rule="evenodd" d="M26 20.95c0-3.203 2.506-5.95 6.005-5.95C34.881 15 38 17.047 38 21.02c0 3.468-2.681 5.98-5.953 5.98C28.432 27 26 24.202 26 20.95Zm9.39.055c0-2.252-1.63-3.648-3.35-3.648-1.933 0-3.418 1.553-3.418 3.63 0 2.124 1.503 3.658 3.41 3.658 1.736 0 3.359-1.437 3.359-3.64Z" fill="#2D3B40"/><path fill-rule="evenodd" clip-rule="evenodd" d="M37 20.95c0-3.203 2.506-5.95 6.005-5.95C45.881 15 49 17.047 49 21.02c0 3.468-2.681 5.98-5.953 5.98C39.432 27 37 24.202 37 20.95Zm9.39.055c0-2.252-1.63-3.648-3.35-3.648-1.933 0-3.418 1.553-3.418 3.63 0 2.124 1.503 3.658 3.41 3.658 1.736 0 3.359-1.437 3.359-3.64Zm2.61-.492C49 17.598 51.643 15 55.005 15c1.463 0 2.566.5 3.372 1.266v-.934H61v9.915C61 29.143 58.452 31 55.11 31c-3.057 0-4.774-1.659-5.627-3.25l2.404-.886c.334.711 1.291 1.964 3.203 1.964 1.977 0 3.287-1.14 3.287-3.044v-1.087c-.7.716-1.647 1.34-3.43 1.34-2.883 0-5.947-2.202-5.947-5.524Zm9.589.012c0-2.12-1.693-3.362-3.34-3.362-1.766 0-3.498 1.264-3.498 3.382 0 2.04 1.669 3.323 3.46 3.323 1.69 0 3.378-1.187 3.378-3.343Zm6.255 1.65c0-3.019 2.357-5.066 5.166-5.066v.001a5.006 5.006 0 0 1 4.605 2.972l.385.827-7.425 2.823c.443.756 1.159 1.537 2.715 1.537 1.387 0 2.217-.69 2.714-1.396l1.914 1.166c-.858 1.052-2.296 2.227-4.64 2.227-2.806 0-5.434-1.896-5.434-5.09Zm7.11-1.927c-.317-.604-1.06-1.107-2.091-1.107-1.635 0-3.185 1.545-2.968 3.047l5.058-1.94Z" fill="#2D3B40"/><path d="M62 27h3V11h-3v16Z" fill="#2D3B40"/></svg>