<svg width="120" height="50" fill="none" xmlns="http://www.w3.org/2000/svg"><path d="M36.813 21.47H26.46v3.13h7.342c-.362 4.39-3.946 6.262-7.33 6.262-4.327 0-8.105-3.47-8.105-8.334 0-4.739 3.6-8.39 8.115-8.39 3.483 0 5.536 2.264 5.536 2.264l2.15-2.27S31.408 11 26.373 11C19.96 11 15 16.515 15 22.472 15 28.308 19.666 34 26.535 34 32.578 34 37 29.782 37 23.546c0-1.317-.187-2.078-.187-2.078v.001Z" fill="#2D3B40"/><path fill-rule="evenodd" clip-rule="evenodd" d="M38 26.438C38 22.434 40.924 19 45.006 19 48.361 19 52 21.558 52 26.526 52 30.86 48.872 34 45.054 34 40.837 34 38 30.502 38 26.438Zm10.956.068c0-2.814-1.902-4.56-3.91-4.56h.001c-2.255 0-3.988 1.941-3.988 4.538 0 2.654 1.754 4.572 3.978 4.572 2.025 0 3.919-1.796 3.919-4.55ZM54 26.438C54 22.434 56.924 19 61.006 19 64.361 19 68 21.558 68 26.526 68 30.86 64.872 34 61.054 34 56.837 34 54 30.502 54 26.438Zm10.956.068c0-2.814-1.902-4.56-3.91-4.56h.001c-2.256 0-3.988 1.941-3.988 4.538 0 2.654 1.754 4.572 3.978 4.572 2.025 0 3.919-1.796 3.919-4.55Zm4.044-.27C69 22.41 72.304 19 76.506 19c1.83 0 3.207.656 4.216 1.662v-1.227H84V32.45c0 5.113-3.185 7.55-7.364 7.55-3.82 0-5.966-2.177-7.032-4.265l3.005-1.163c.417.933 1.614 2.577 4.003 2.577 2.472 0 4.11-1.495 4.11-3.995v-1.427c-.875.94-2.06 1.76-4.289 1.76-3.604 0-7.433-2.891-7.433-7.25Zm11.986.015c0-2.782-2.116-4.412-4.175-4.412-2.207 0-4.372 1.659-4.372 4.44 0 2.676 2.086 4.36 4.326 4.36 2.11 0 4.221-1.558 4.221-4.388ZM91 26.482C91 22.022 94.25 19 98.12 19c3.054 0 5.36 1.998 6.349 4.39l.531 1.222-10.235 4.169c.61 1.117 1.597 2.27 3.743 2.27 1.911 0 3.055-1.02 3.741-2.062l2.638 1.723C103.704 32.266 101.722 34 98.492 34 94.622 34 91 31.2 91 26.482Zm10.078-3c-.426-.872-1.43-1.6-2.825-1.6h.001c-2.21 0-4.306 2.233-4.011 4.403l6.835-2.803Z" fill="#2D3B40"/><path d="M86 33h3V12h-3v21Z" fill="#2D3B40"/></svg>