<svg width="132" height="45" viewBox="0 0 132 45" fill="none" xmlns="http://www.w3.org/2000/svg">
<path d="M42.7117 22.8758H42.7127L42.7117 22.8738V22.8758Z" fill="#5B6977"/>
<path fill-rule="evenodd" clip-rule="evenodd" d="M117.105 29.372L117.143 29.3723C119.396 29.3723 120.983 27.7844 121 25.5106C121.008 24.3852 120.689 23.3551 120.1 22.6103C119.477 21.8223 118.605 21.4018 117.578 21.3938L117.558 21.3936C116.172 21.3936 114.885 22.4634 113.624 24.6645L113.523 24.8396L113.459 24.6477C113.141 23.7071 112.858 22.923 112.688 22.4531L112.688 22.4523L112.687 22.4492C112.568 22.1209 112.515 21.9737 112.503 21.9262C112.443 21.6878 112.243 21.5401 111.98 21.5401C111.819 21.5401 111.648 21.5957 111.486 21.7005C111.325 21.8044 111.235 21.9318 111.203 22.1014L111.195 22.1268C109.932 26.1326 108.891 28.078 108.01 28.0782C107.882 28.0772 107.781 28.0341 107.706 27.9499C107.475 27.6899 107.532 27.0721 107.611 26.2168L107.611 26.2131C107.668 25.5863 107.734 24.8759 107.706 24.1226C107.654 22.6722 106.874 21.8005 105.619 21.7907C104.025 21.7905 102.992 23.5176 102.516 24.5472L102.374 24.8546L102.342 24.5164C102.223 23.242 101.803 21.7202 100.476 21.71C98.9277 21.71 97.7483 23.5585 97.0291 25.1093L96.8361 25.5249L96.8551 25.0658C96.9409 22.9969 97.0112 21.7761 97.0638 21.437C97.1163 21.0974 97.0887 20.8691 96.9794 20.7388C96.876 20.616 96.6809 20.5708 96.3944 20.5894C95.8988 20.6213 95.6452 20.9279 95.264 21.9567C94.6375 23.6463 93.0431 27.5765 91.7702 27.5765C91.5178 27.5746 91.3178 27.4869 91.1714 27.3163C90.6374 26.6933 90.8509 25.011 91.1463 22.6822L91.1464 22.6815L91.1687 22.5054C91.3084 21.4026 91.0698 21.1674 90.4816 21.0571C90.4181 21.0452 90.358 21.0392 90.3027 21.0392C89.8324 21.0392 89.6125 21.4972 89.1733 22.77C88.392 25.0354 87.3873 27.4183 86.2117 27.4183C86.1688 27.4183 86.1259 27.4147 86.0833 27.4074C85.4605 27.3 85.474 26.3596 85.4913 25.1694L85.4914 25.1646V25.1643C85.5005 24.5216 85.5109 23.7939 85.4134 23.1366C85.2379 21.9543 84.553 21.2155 83.626 21.2081C81.7753 21.2079 80.5275 23.6189 79.9469 25.0559L79.8155 25.3812L79.7718 25.0323C79.6938 24.4093 79.5914 23.4216 79.5467 22.2535L79.5455 22.2191L79.5666 22.1919C83.0298 17.757 84.5835 14.5566 84.6042 11.8146C84.6175 10.0627 83.8231 9.0106 82.4793 9C81.497 9 79.1602 9.83254 78.3485 17.5454C78.1979 18.9756 78.1151 20.442 78.1027 21.9041L78.1024 21.9326L78.0864 21.9559C76.5023 24.2892 73.1206 28.3022 69.8098 28.3022C66.8187 28.3022 64.432 25.8405 64.432 21.4946C64.432 15.6687 68.4857 12.0918 71.5359 12.0918L71.561 12.092C72.224 12.097 72.7923 12.2854 73.205 12.6366C73.6334 13.0013 73.8573 13.5126 73.8528 14.1147C73.8469 14.9192 73.5896 15.3323 73.3405 15.7318L73.3381 15.7357L73.338 15.7358L73.338 15.7359C73.2749 15.8373 73.2122 15.9382 73.1546 16.045C73.0957 16.1541 73.0421 16.3128 73.1203 16.4486C73.2004 16.5876 73.4051 16.6749 73.6547 16.6769C74.381 16.6769 75.4789 15.6078 75.491 13.9965C75.5037 12.3103 74.1073 10.5727 71.6162 10.5727C67.8465 10.5727 62.7699 14.7859 62.7699 21.6141C62.7699 26.4442 65.7464 29.7825 69.7789 29.7825C72.6406 29.7825 75.4713 27.6985 77.9779 24.2169L78.1314 24.0056L78.1425 24.2683C78.1956 25.5418 78.2866 26.5463 78.3531 27.2795L78.3531 27.28L78.3541 27.2906L78.3542 27.2916C78.3964 27.757 78.4269 28.0934 78.4255 28.2797C78.4223 28.6917 78.4885 28.9771 78.628 29.1525C78.7674 29.3281 78.989 29.4113 79.3249 29.4138C79.888 29.4138 80.0005 29.023 80.2235 28.0603L80.2877 27.7852C80.5646 26.6177 81.588 22.8077 83.1273 22.8077C83.3787 22.8097 83.5724 22.886 83.7102 23.0345C84.0503 23.4014 84.0131 24.1539 83.97 25.0257C83.9431 25.5696 83.9153 26.1319 83.9689 26.6792C84.1139 28.157 84.7411 28.8796 85.8865 28.8884C87.0629 28.8886 88.2901 27.5999 88.9376 26.4022L89.0599 26.176L89.1073 26.4296C89.227 27.0705 89.7617 29.1748 91.4357 29.1748C92.953 29.1748 94.254 27.549 95.6809 24.2045L95.8674 23.7674L95.856 24.2438C95.8458 24.6667 95.8316 25.1208 95.8171 25.5826L95.817 25.583C95.788 26.5054 95.7581 27.4587 95.7578 28.2561C95.7572 29.1815 95.8491 29.5348 96.2696 29.5348C96.2841 29.5348 96.2992 29.536 96.3146 29.5371C96.3242 29.5378 96.334 29.5385 96.3439 29.539C96.3508 29.5393 96.3577 29.5395 96.3648 29.5395C96.7684 29.5395 97.0424 29.294 97.1788 28.8098C98.252 25.0036 99.18 23.231 100.099 23.231C100.999 23.2379 101.084 24.9121 101.156 27.8707L101.161 28.0778C101.183 29.1128 101.219 29.5703 101.851 29.5754C102.33 29.5754 102.45 29.1925 102.698 28.2491C102.745 28.0687 102.797 27.8716 102.857 27.6588C103.724 24.5992 104.442 23.3513 105.337 23.3513C106.103 23.3574 106.145 24.1605 106.159 24.4245C106.189 24.9899 106.132 25.5811 106.076 26.1528C106.025 26.6836 105.972 27.2323 105.992 27.7437C106.039 28.9403 106.683 29.604 107.806 29.6127C109.263 29.6129 110.578 27.8795 111.73 24.4611L111.81 24.2229L111.901 24.457C112.11 24.9937 112.382 25.7211 112.634 26.5889L112.644 26.622L112.63 26.6535C111.515 29.173 110.728 31.9796 110.717 33.4785C110.702 35.4535 111.58 36.7368 112.954 36.7476L112.978 36.7477C113.726 36.7477 115.468 36.4426 115.502 33.6163C115.516 32.458 115.247 30.82 114.703 28.7479L114.641 28.5107L114.842 28.6465C115.536 29.115 116.318 29.3659 117.105 29.372ZM79.7244 17.739C79.641 18.3907 79.5826 19.0803 79.5514 19.7884L79.5367 20.1158L79.7179 19.845C82.0335 16.3857 83.2149 13.6698 83.2292 11.7729C83.2349 11.0008 82.9786 10.6071 82.4671 10.6032H82.4625C81.3892 10.6032 80.2633 13.5375 79.7244 17.739ZM114.064 26.4931L114.047 26.4616L114.013 26.3526L114.028 26.3197C115.09 24.0949 116.306 22.8189 117.365 22.8189H117.376C118.571 22.8284 119.398 23.9221 119.386 25.4789C119.378 26.518 118.928 27.1163 118.552 27.4349C118.123 27.7987 117.552 28.0071 116.984 28.0071C115.586 27.9963 114.626 27.178 114.064 26.4931ZM113.774 34.8937C113.603 35.1249 113.365 35.2421 113.067 35.2421C112.726 35.2394 112.468 35.1176 112.294 34.8803C111.804 34.2143 111.942 32.65 112.741 29.8086C112.836 29.4697 112.94 29.1286 113.049 28.7945L113.142 28.5111L113.224 28.7981C114.155 32.077 114.34 34.1277 113.774 34.8937ZM43.7218 23.5717C43.2313 25.5799 42.2908 28.0027 40.5951 28.1413C40.5477 28.1449 40.5016 28.1472 40.457 28.1472C39.7538 28.1472 39.3594 27.6787 39.2849 26.7548C39.1916 25.5982 39.6818 24.2436 40.5332 23.3034C41.0754 22.7046 41.6868 22.3749 42.2545 22.3749H42.2661C42.9833 22.3806 43.4859 22.9664 43.7171 23.5125L43.7292 23.5412L43.7218 23.5717ZM59.295 12.3436L59.2709 12.3441C58.0263 12.41 56.5977 17.1956 56.8419 21.9996C56.8765 22.681 56.9255 23.4813 57.0249 24.2497L57.0591 24.5133L57.1937 24.2856C58.038 22.8558 58.7733 21.1399 59.3203 19.3236C60.2771 16.1452 60.2689 13.3519 59.7125 12.5865C59.5953 12.4252 59.4549 12.3436 59.295 12.3436ZM46.3577 29.0046C47.9962 28.8707 49.2963 26.6038 49.7792 25.6354L49.9036 25.3856L49.9506 25.6615C50.1822 27.0243 50.9107 29.3133 53.1898 29.331L53.2087 29.3313C54.1944 29.3313 55.3128 28.7181 56.4429 27.5578L56.5258 27.4726L56.5861 27.5755C57.3469 28.8699 58.3677 29.5576 59.4539 29.501C61.0539 29.4168 62.0246 28.2629 62.1102 27.4623C62.1322 27.2581 62.0789 27.0663 61.9644 26.9363C61.8205 26.7729 61.6116 26.7544 61.4579 26.9035L61.3851 26.9741C61.0124 27.3382 60.3186 28.0158 59.5627 28.0557C58.637 28.1022 57.9525 27.5388 57.51 26.3768L57.4915 26.3282L57.5226 26.2868C60.068 22.8997 61.8546 17.7313 61.6782 14.265C61.5969 12.6606 61.1382 10.748 59.4161 10.748C59.3739 10.748 59.3311 10.7491 59.2876 10.7515C58.6279 10.7861 58.0278 11.106 57.5042 11.7019C55.9063 13.5206 55.0699 17.9975 55.3734 23.1075C55.4365 24.1693 55.6177 25.1612 55.9121 26.0556L55.9285 26.1055L55.895 26.1456C54.9504 27.2686 54.0184 27.8873 53.2707 27.8873C51.4712 27.8873 51.532 24.8185 51.6742 22.2726C51.678 22.2053 51.6819 22.1411 51.6857 22.0797C51.713 21.6405 51.731 21.3501 51.591 21.1756C51.4767 21.0333 51.286 20.9632 51.0079 20.9609L50.9754 20.9607C50.3354 20.9607 50.2015 21.0946 49.8736 22.0612C49.1921 24.07 47.8468 27.44 46.4934 27.44C46.1182 27.437 45.8319 27.3063 45.6361 27.0522C44.9798 26.1999 45.4777 24.075 45.878 22.3666L45.8784 22.3648C45.9505 22.0575 46.0196 21.7626 46.0787 21.4898C46.1665 21.0846 46.1396 20.7888 45.9986 20.6103C45.8578 20.4321 45.5759 20.3595 45.2039 20.3897C44.6242 20.4368 44.2536 20.6836 44.0747 21.8049L44.0389 22.0382L43.904 21.8723C43.6511 21.4921 43.1573 21.039 42.2414 21.039C42.161 21.039 42.078 21.0421 41.9922 21.0494C41.0144 21.1311 39.9011 21.8238 39.0867 22.858C38.1353 24.0656 37.681 25.5938 37.8074 27.1611C37.8142 27.244 37.8259 27.3235 37.8376 27.403L37.8443 27.4468L37.8146 27.4798C37.2455 28.1105 36.6657 28.4305 36.0913 28.4306C35.2046 28.4235 34.6958 27.7529 34.6958 26.6362C34.6958 25.7169 34.9953 23.8918 35.3013 22.0268L35.3013 22.0267C35.6211 20.0784 35.9479 18.0867 35.9479 17.0386C35.9479 14.8556 34.9916 13.6668 33.3312 13.6539L33.3062 13.6538C30.8818 13.6538 28.9917 16.4529 27.1835 22.2114C27.0179 22.7389 26.8377 23.3482 26.6833 23.8748L26.4294 24.7406L26.5048 23.8404C26.6727 21.8344 26.7881 19.8827 26.8477 18.0393C26.9377 15.2562 26.5679 13.4652 25.717 12.5637C25.2581 12.0775 24.6508 11.8382 23.8601 11.8321H23.8391C20.9156 11.8321 19.4927 16.7743 18.4617 20.3558L18.4159 20.5148C18.1786 21.3385 17.766 22.9482 17.4012 24.4075L17.4186 24.2162C17.6442 21.7308 18.0265 17.5201 17.9968 15.0737C17.9596 12.0043 16.9549 10.628 14.739 10.6107H14.7116C13.5281 10.6107 12.7069 11.2093 12.2263 11.7114C11.4551 12.5172 10.9742 13.6949 11.0011 14.7119C11.0173 15.3301 11.3903 15.8804 11.6729 15.8804C11.8572 15.8804 11.959 15.6304 12.0033 15.4815C12.6889 13.1758 13.5759 12.055 14.7148 12.055C15.1873 12.0587 15.5384 12.2002 15.8018 12.4877C16.6913 13.4586 16.5296 16.08 16.2361 20.8389L16.2361 20.8397C16.1415 22.3734 16.0343 24.1116 15.9437 26.0885C15.9282 26.4273 15.9074 26.755 15.8878 27.0659L15.8877 27.0666L15.8876 27.0677C15.8011 28.4405 15.7327 29.5246 16.2444 29.6051C16.9103 29.7107 17.3439 29.4358 17.5654 28.7652C17.7626 28.1688 18.1065 26.9535 18.6576 25.0059L18.6577 25.0057C19.0263 23.7031 19.4876 22.0728 20.0597 20.081C21.4294 15.3124 22.4642 13.5773 23.7883 13.5773C25.3178 13.5773 25.4319 16.2492 25.1514 21.8873C25.132 22.2767 25.1104 22.6829 25.088 23.1047L25.088 23.105L25.088 23.1051C25.0417 23.9776 24.9918 24.9166 24.9505 25.91C24.9419 26.1168 24.9322 26.3175 24.9228 26.5108L24.9228 26.5114C24.864 27.7306 24.8175 28.6937 25.1599 29.0625C25.2667 29.1773 25.4122 29.2341 25.6045 29.2354C26.2675 29.2354 26.4669 28.6439 26.7971 27.6637L26.803 27.6462L26.803 27.6461C26.8597 27.4779 26.9199 27.2994 26.9866 27.1122C27.2252 26.4426 27.4573 25.7824 27.6842 25.1368C29.6179 19.6353 31.1754 15.2041 33.1934 15.2041C33.8699 15.2041 34.3957 15.763 34.3957 16.853C34.3957 18.1174 34.0904 19.9743 33.7866 21.8217L33.7866 21.8217L33.7866 21.8217C33.4859 23.6502 33.1868 25.4692 33.1868 26.6951C33.1868 27.5777 33.4365 28.371 33.9086 28.928C34.393 29.4996 35.0708 29.8049 35.8686 29.8112H35.8861C36.6405 29.8112 37.4266 29.4382 38.223 28.7029L38.2976 28.6339L38.3577 28.7161C38.882 29.4339 39.7282 29.819 40.6417 29.7471C42.043 29.6363 43.219 28.3667 43.6563 27.17L43.7419 26.9356L43.8275 27.17C44.1518 28.0582 44.8551 29.1288 46.3577 29.0046Z" fill="#2D3B40"/>
<path fill-rule="evenodd" clip-rule="evenodd" d="M50.6397 18.3451C50.6443 17.5637 51.1502 16.928 51.7763 16.928C52.3982 16.9343 52.9004 17.5798 52.8956 18.3674C52.891 19.1486 52.3853 19.784 51.7682 19.784V19.901L51.7592 19.784C51.1372 19.7776 50.6349 19.1323 50.6397 18.3451ZM90.0054 18.3451C90.01 17.5637 90.5158 16.928 91.1418 16.928C91.7639 16.9343 92.2659 17.5798 92.2612 18.3674C92.2566 19.1486 91.7509 19.784 91.1337 19.784V19.901L91.1249 19.784C90.5027 19.7776 90.0004 19.1323 90.0054 18.3451Z" fill="#2D3B40"/>
</svg>
