<svg width="132" height="45" fill="none" xmlns="http://www.w3.org/2000/svg"><path fill-rule="evenodd" clip-rule="evenodd" d="M47.923 14.807v13.937h3.896V18.16h3.021c1 0 1.711.255 2.195.777.61.663.858 1.733.858 3.687v6.123h3.777v-7.702c0-5.495-3.442-6.236-6.803-6.236h-6.941l-.003-.001ZM84.532 28.75V14.823h5.422c3.077 0 5.139.378 6.57 2.328.795 1.088 1.25 2.834 1.25 4.79 0 2.136-.537 4.088-1.37 4.977-1.18 1.268-2.269 1.832-5.607 1.832h-6.265Zm-15.014-2.889 3.223-11.033h3.944l-4.447 13.921H66.67l-4.411-13.921h4.17l3.088 11.033Zm30.055 2.89h3.863V14.827h-3.864V28.75Zm5.434-.006 5.394-13.913h5.159L121 28.745h-4.137l-.815-2.459h-6.377l-.854 2.46h-3.81Zm10.239-4.856-2.336-6.52-.001.002-2.414 6.518h4.751Zm-26.881-6.031h1.66c2.409 0 3.967 1.103 3.967 3.96 0 2.86-1.558 3.963-3.967 3.963h-1.66v-7.923ZM78.313 28.744l-.001-13.92h3.865v13.92h-3.864ZM23.181 11.006v2.961C16.653 14.501 11 20.128 11 20.128s3.202 9.423 12.181 10.285v-1.707c.399.056.813.08 1.244.08 5.384 0 9.278-2.795 13.05-6.107.278.231.945.606 1.644.998.862.484 1.774.996 2.065 1.299-3.585 3.053-11.94 5.518-16.677 5.518-.456 0-.896-.027-1.326-.072V33h20.466V11.006H23.18Zm0 15.863c.467.084.963.134 1.494.134 5.785 0 11.339-6.875 11.339-6.875s-4.835-6.45-12.258-6.195c-.192.007-.384.018-.575.034v1.605c.19-.016.381-.024.575-.032 5.338-.17 8.84 4.665 8.84 4.665s-3.783 5.343-7.837 5.343a4.834 4.834 0 0 1-1.578-.258v-6.002h-.008c-2.084-.252-3.712 1.724-3.712 1.724s.912 3.335 3.72 4.302v1.555Zm0-11.294c-5.868.457-8.82 4.854-8.846 4.893.023.073 2.29 7.395 8.846 8.237v-1.836c-4.98-.902-6.363-6.171-6.363-6.171s2.392-2.7 6.363-3.134v1.708c1.947.239 2.436 1.074 3.518 2.922l.227.387 2.778-2.385s-2.027-2.707-5.445-2.707c-.373 0-.73.026-1.078.064v-1.978Z" fill="#2D3B40"/></svg>