<svg width="120" height="50" fill="none" xmlns="http://www.w3.org/2000/svg"><path fill-rule="evenodd" clip-rule="evenodd" d="M45.21 19.114v11.404h3.187v-8.66h2.472c.818 0 1.4.208 1.796.635.499.542.702 1.418.702 3.017v5.01h3.09v-6.302c0-4.496-2.816-5.102-5.566-5.102h-5.68l-.001-.002Zm29.953 11.409V19.128h4.436c2.517 0 4.204.31 5.376 1.905.65.89 1.022 2.319 1.022 3.92 0 1.746-.44 3.343-1.121 4.07-.965 1.038-1.856 1.5-4.588 1.5h-5.125Zm-12.285-2.364 2.637-9.027h3.227l-3.638 11.39h-4.556l-3.609-11.39h3.411l2.528 9.027Zm24.59 2.364h3.161v-11.39h-3.16v11.39Zm4.447-.004 4.413-11.384h4.221L105 30.519h-3.385l-.667-2.012h-5.217l-.699 2.012h-3.117Zm8.377-3.974-1.911-5.334-.001.002-1.975 5.332h3.887Zm-21.994-4.934h1.359c1.97 0 3.246.903 3.246 3.24 0 2.34-1.275 3.243-3.246 3.243h-1.359V21.61Zm-8.223 8.907-.002-11.39h3.163v11.39h-3.161ZM24.967 16.005v2.423c-5.342.437-9.967 5.04-9.967 5.04s2.62 7.71 9.967 8.415v-1.396c.326.046.664.066 1.017.066 4.405 0 7.591-2.288 10.677-4.997.228.189.773.495 1.345.816.706.396 1.452.815 1.69 1.063-2.933 2.498-9.77 4.515-13.645 4.515-.373 0-.733-.022-1.084-.06V34H41.71V16.005H24.967Zm0 12.979c.381.069.788.11 1.222.11 4.733 0 9.277-5.626 9.277-5.626S31.51 18.191 25.437 18.4c-.157.006-.314.016-.47.029v1.313a10.7 10.7 0 0 1 .47-.026c4.367-.139 7.232 3.816 7.232 3.816s-3.095 4.372-6.411 4.372c-.478 0-.906-.08-1.291-.211V22.78h-.007c-1.705-.206-3.038 1.41-3.038 1.41s.747 2.73 3.045 3.52v1.273Zm0-9.24c-4.802.373-7.217 3.97-7.238 4.002.018.06 1.873 6.051 7.238 6.74v-1.502c-4.076-.739-5.206-5.05-5.206-5.05s1.957-2.208 5.206-2.564v1.398c1.592.195 1.992.879 2.878 2.39.059.102.12.208.185.317l2.273-1.951s-1.659-2.215-4.455-2.215a8.09 8.09 0 0 0-.881.053v-1.618Z" fill="#2D3B40"/></svg>