<svg width="77" height="30" fill="none" xmlns="http://www.w3.org/2000/svg"><path fill-rule="evenodd" clip-rule="evenodd" d="M29.133 10.973v7.222h2.018V12.71h1.566c.518 0 .887.132 1.137.403.316.343.445.897.445 1.91v3.173h1.957v-3.991c0-2.847-1.784-3.232-3.525-3.232h-3.598Zm18.97 7.225V10.98h2.81c1.594 0 2.662.196 3.404 1.207.412.563.648 1.468.648 2.482 0 1.106-.279 2.118-.71 2.579-.611.657-1.176.949-2.906.949h-3.246Zm-7.78-1.497 1.67-5.717h2.043l-2.304 7.214h-2.885l-2.286-7.215h2.16l1.602 5.718Zm15.574 1.497h2.002v-7.214h-2.002v7.214Zm2.816-.003 2.795-7.21h2.673L67 18.196h-2.144l-.422-1.274h-3.305l-.442 1.274h-1.974Zm5.305-2.516-1.21-3.378-1.252 3.378h2.462Zm-13.93-3.125h.861c1.248 0 2.056.572 2.056 2.051 0 1.483-.808 2.055-2.056 2.055h-.86v-4.107Zm-5.208 5.641v-7.214h2.002v7.214H44.88ZM16.312 9.003v1.535C12.93 10.814 10 13.73 10 13.73s1.659 4.883 6.312 5.33v-.885c.207.03.421.042.644.042 2.79 0 4.808-1.449 6.762-3.165.145.12.49.314.853.517.447.25.919.516 1.07.673-1.858 1.582-6.187 2.86-8.642 2.86a6.55 6.55 0 0 1-.687-.038V20.4h10.605V9.003H16.312Zm0 8.22c.242.044.5.07.774.07 2.998 0 5.876-3.563 5.876-3.563s-2.505-3.342-6.352-3.21c-.1.003-.199.01-.298.018v.831c.098-.008.197-.012.298-.017 2.766-.087 4.58 2.418 4.58 2.418s-1.96 2.768-4.06 2.768c-.302 0-.574-.05-.818-.133v-3.11h-.004c-1.08-.13-1.924.893-1.924.893s.473 1.728 1.928 2.23v.805Zm0-5.852c-3.04.236-4.57 2.515-4.584 2.535.012.038 1.187 3.832 4.584 4.268v-.951c-2.58-.468-3.297-3.198-3.297-3.198s1.24-1.398 3.297-1.624v.885c1.009.124 1.262.557 1.823 1.514l.117.2 1.44-1.235s-1.05-1.403-2.822-1.403c-.193 0-.377.014-.558.034V11.37Z" fill="#2D3B40"/></svg>