<svg width="165" height="55" fill="none" xmlns="http://www.w3.org/2000/svg"><path fill-rule="evenodd" clip-rule="evenodd" d="M60.315 19.672v17.105h4.781v-12.99h3.708c1.226 0 2.1.312 2.693.953.749.813 1.054 2.126 1.054 4.525v7.514h4.635v-9.452c0-6.744-4.224-7.653-8.35-7.653h-8.518l-.003-.002Zm44.929 17.112V19.692h6.654c3.776 0 6.307.464 8.064 2.857.975 1.335 1.534 3.479 1.534 5.88 0 2.62-.66 5.015-1.682 6.107-1.447 1.556-2.784 2.248-6.881 2.248h-7.689ZM86.817 33.24l3.956-13.54v-.001h4.84l-5.457 17.085h-6.834L77.91 19.698h5.117l3.791 13.54Zm36.886 3.545h4.741V19.7h-4.741v17.085Zm6.669-.006 6.62-17.075h6.331L150 36.778h-5.077l-1-3.017h-7.827l-1.048 3.017h-4.676Zm12.567-5.96-2.868-8-.001.001-2.962 8h5.831Zm-32.991-7.402h2.037c2.956 0 4.869 1.355 4.869 4.86 0 3.51-1.913 4.865-4.869 4.865h-2.037v-9.726Zm-12.336 13.36-.002-17.084h4.743v17.084h-4.741ZM29.95 15.007v3.635c-8.012.655-14.95 7.56-14.95 7.56s3.93 11.565 14.95 12.623V36.73c.489.07.997.099 1.526.099 6.608 0 11.387-3.431 16.015-7.495.343.283 1.16.742 2.018 1.224 1.059.594 2.178 1.222 2.535 1.594-4.4 3.747-14.654 6.773-20.467 6.773-.56 0-1.1-.034-1.627-.09V42h25.116V15.007H29.95Zm0 19.468c.572.104 1.182.166 1.833.166 7.1 0 13.916-8.438 13.916-8.438s-5.933-7.916-15.043-7.604c-.236.009-.472.023-.706.043v1.97c.233-.02.467-.03.706-.04 6.55-.208 10.847 5.725 10.847 5.725s-4.642 6.557-9.617 6.557a5.931 5.931 0 0 1-1.936-.316V25.17h-.01c-2.558-.308-4.557 2.116-4.557 2.116s1.12 4.094 4.567 5.28v1.908Zm0-13.86c-7.202.56-10.825 5.957-10.857 6.005.028.09 2.81 9.076 10.857 10.109v-2.254c-6.113-1.107-7.81-7.573-7.81-7.573s2.936-3.313 7.81-3.847v2.096c2.389.294 2.989 1.319 4.317 3.587l.278.474 3.41-2.926s-2.488-3.323-6.683-3.323c-.457 0-.895.033-1.322.08v-2.428Z" fill="#2D3B40"/></svg>