<svg width="85" height="40" fill="none" xmlns="http://www.w3.org/2000/svg"><path fill-rule="evenodd" clip-rule="evenodd" d="M31.818 16.177v7.97h2.302v-6.053h1.785c.591 0 1.012.145 1.297.444.36.38.508.99.508 2.109v3.501h2.231v-4.404c0-3.142-2.034-3.566-4.02-3.566H31.82l-.002-.001Zm21.633 7.973v-7.964h3.203c1.819 0 3.037.216 3.883 1.331.47.622.739 1.621.739 2.74 0 1.22-.318 2.337-.81 2.846-.697.725-1.34 1.047-3.313 1.047H53.45Zm-8.872-1.652 1.904-6.309h2.33l-2.627 7.96h-3.29l-2.607-7.96h2.464l1.826 6.31Zm17.76 1.652h2.282v-7.96h-2.283v7.96Zm3.21-.002 3.188-7.957h3.048L75 24.148h-2.445l-.481-1.407h-3.769l-.504 1.407H65.55ZM71.6 21.37l-1.38-3.728-.001.001-1.426 3.727H71.6Zm-15.884-3.448h.98c1.424 0 2.345.63 2.345 2.264 0 1.635-.921 2.267-2.344 2.267h-.982v-4.531Zm-5.94 6.225v-7.96h2.283v7.96h-2.283ZM17 14.003v1.694c.113-.01.226-.016.34-.02 4.386-.146 7.243 3.543 7.243 3.543s-3.282 3.931-6.7 3.931c-.314 0-.607-.028-.883-.076v1.021c-3.722-.596-5.016-4.64-5.029-4.682.015-.022 1.76-2.537 5.227-2.798v1.131c.206-.021.416-.037.637-.037 2.02 0 3.217 1.549 3.217 1.549l-1.641 1.363-.134-.22c-.64-1.058-.929-1.535-2.079-1.672v-.977c-2.347.25-3.76 1.793-3.76 1.793s.817 3.012 3.76 3.529v-.89c-1.66-.552-2.199-2.46-2.199-2.46s.963-1.13 2.194-.986h.005v3.433c.278.092.588.147.932.147 2.396 0 4.63-3.055 4.63-3.055s-2.068-2.765-5.222-2.668c-.115.005-.228.01-.34.018v-.917C13.341 16.002 10 19.22 10 19.22s1.892 5.388 7.198 5.881v-.953c.174.016.353.023.537.023 3.181 0 5.482-1.599 7.71-3.492.166.132.56.346.973.57.51.277 1.048.57 1.22.743-2.119 1.746-7.056 3.156-9.855 3.156a7.66 7.66 0 0 1-.783-.042v1.475h12.093V14.003H17Zm.198 10.145a4.645 4.645 0 0 1-.198-.023v-.029l.198.029v.023Z" fill="#2D3B40"/></svg>