<svg width="120" height="50" viewBox="0 0 120 50" fill="none" xmlns="http://www.w3.org/2000/svg">
<path fill-rule="evenodd" clip-rule="evenodd" d="M60 0C64.691 0 69.041 1.27743 72.7882 3.52465C73.7972 4.12743 74.2951 4.52708 74.2951 5.09688C74.2951 7.48819 67.5865 9.97118 58.9385 9.97118C50.1993 9.97118 45.2726 7.70451 45.2726 5.59479C45.2726 4.8809 45.908 4.32396 47.0347 3.62951C50.7955 1.32326 55.2764 0 60 0ZM76.5094 6.30243C76.6142 6.46632 76.6667 6.64306 76.6667 6.87882C76.6667 9.6566 68.1694 14.5701 54.641 14.5701C44.7028 14.5701 42.842 10.8819 42.842 8.53646C42.842 7.69792 43.1628 6.83958 43.8705 5.9684C43.9097 5.91597 43.8771 5.89618 43.8313 5.93542C42.5406 7.02951 41.3549 8.26111 40.3132 9.59132C39.8153 10.2201 39.5073 10.7771 39.5073 11.1111C39.5073 15.9726 51.6931 19.4969 63.0858 19.4969C75.2253 19.4969 80.6434 15.5333 80.6434 12.0479C80.6434 10.8031 80.1587 10.076 78.9205 8.66736C78.1146 7.75035 77.3545 7.00347 76.5486 6.26979C76.5094 6.23681 76.4833 6.26319 76.5094 6.30243ZM35.6222 19.4576C35.8646 18.1865 36.6771 15.7299 37.4108 14.2753C37.4306 14.2361 37.4698 14.2427 37.4566 14.2885C37.3323 14.7865 37.234 15.2646 37.234 15.7431C37.234 20.7222 45.4885 24.666 55.3813 24.666C64.5139 24.666 82.6153 20.4795 82.3993 13.9872C82.3924 13.9413 82.4253 13.9347 82.4451 13.974C83.0281 15.1597 83.716 16.85 84.0826 18.2979C84.4104 19.5951 84.3972 20.558 84.1417 21.4688C82.7528 26.4215 74.1771 29.134 63.1382 29.134C45.0431 29.134 37.2865 23.9257 35.7535 20.6694C35.5632 20.2635 35.5177 20.0014 35.6222 19.4576ZM54.975 35.0236C42.1802 35.0236 36.1465 29.0618 35.0524 24.9934C35.0392 24.9344 35 24.9476 35 25C35 26.3691 35.1375 28.1382 35.3733 29.3108C35.4847 29.8806 35.95 30.7781 36.6313 31.4924C39.7302 34.7222 47.4542 39.2493 60.8319 39.2493C79.058 39.2493 83.2247 33.176 84.0764 31.1781C84.6854 29.7497 85 27.1684 85 25C85 24.4757 84.9868 24.0566 84.967 23.6438C84.967 23.5785 84.9281 23.5719 84.9149 23.6375C84.0042 28.5247 68.4316 35.0236 54.975 35.0236ZM78.6517 41.0247C74.6094 44.3465 67.8486 46.0233 61.6969 46.0233C50.009 46.0233 40.549 42.4003 37.4306 35.7705C37.4108 35.7181 37.4437 35.6986 37.4764 35.7441C40.824 40.599 49.3736 43.1406 57.3205 43.1406C68.5628 43.1406 79.451 39.6878 83.2115 34.1524C83.2507 34.0934 83.2833 34.1198 83.2639 34.1719C82.8316 35.2597 82.3007 36.3667 81.7569 37.2969C80.8135 38.9153 79.759 40.1208 78.6517 41.0247ZM60 50C54.2281 50 48.9087 48.0281 44.6698 44.7455C44.6306 44.7132 44.65 44.674 44.7028 44.7C47.4476 46.233 52.3087 47.9493 60 47.9493C68.851 47.9493 74.4719 45.0733 76.4437 43.7566C76.4962 43.724 76.5226 43.7566 76.4701 43.8024C72.0743 47.6545 66.3156 50 60 50Z" fill="#2D3B40"/>
</svg>
