<svg width="132" height="45" viewBox="0 0 132 45" fill="none" xmlns="http://www.w3.org/2000/svg">
<path fill-rule="evenodd" clip-rule="evenodd" d="M109.344 30.2321L105.598 26.0337L108.081 21.6301C108.303 21.2407 108.103 20.9878 107.748 20.9878H105.598C105.243 20.9878 105.044 21.1025 104.867 21.4004L103.47 23.9243L100.986 21.1487C102.672 20.1846 104.268 18.9 104.268 16.6071C104.268 13.9236 102.45 12.1111 99.4796 12.1111C96.5754 12.1111 94.647 14.0602 94.647 16.9053C94.647 18.0287 95.1129 19.3132 96.1321 20.529C94.0485 21.7221 92.6737 23.1437 92.6737 25.8053C92.6737 29.2687 95.2234 31.287 98.4601 31.287C101.075 31.287 102.65 30.1174 103.78 28.5576L105.465 30.4838C105.709 30.7824 105.909 30.8741 106.285 30.8741H109.1C109.456 30.8741 109.633 30.5533 109.344 30.2321ZM84.9826 30.8741C84.6947 30.8741 84.4952 30.6676 84.4952 30.3691V15.5745H79.6408C79.352 15.5745 79.1528 15.368 79.1528 15.0695V13.0289C79.1528 12.7301 79.352 12.5239 79.6408 12.5239H92.5647C92.8529 12.5239 93.0524 12.7301 93.0524 13.0289V15.0695C93.0524 15.368 92.8529 15.5745 92.5647 15.5745H87.71V30.3691C87.71 30.6676 87.5105 30.8741 87.222 30.8741H84.9826ZM98.5266 28.3967C97.0629 28.3967 95.8217 27.2734 95.8217 25.6906C95.8217 24.0842 96.7088 23.2817 98.0835 22.4785L101.674 26.4705C100.898 27.686 99.9445 28.3967 98.5266 28.3967ZM101.253 16.6759C101.253 15.7348 100.677 14.9548 99.5242 14.9548C98.3714 14.9548 97.7067 15.7121 97.7067 16.7211C97.7067 17.5014 98.1048 18.1895 99.0143 19.1985C100.588 18.2583 101.253 17.6852 101.253 16.6759ZM73.1053 15.9189L70.5334 23.4884H75.6544L73.1053 15.9189ZM81.3075 30.2774L75.3 12.9824C75.1889 12.6613 74.9675 12.524 74.6353 12.524H71.664C71.3321 12.524 71.1326 12.6613 71.022 12.9824L65.0142 30.2774C64.9031 30.5759 65.1029 30.8741 65.3908 30.8741H67.5634C67.8959 30.8741 68.0951 30.7139 68.206 30.3921L69.5145 26.4934H76.6742L77.9825 30.3921C78.093 30.7139 78.2928 30.8741 78.6254 30.8741H80.9309C81.241 30.8741 81.4183 30.5759 81.3075 30.2774ZM115.574 30.3691C115.574 30.6676 115.374 30.8741 115.086 30.8741H112.847C112.559 30.8741 112.36 30.6676 112.36 30.3691V15.5745H107.504C107.216 15.5745 107.017 15.368 107.017 15.0695V13.0289C107.017 12.7301 107.216 12.5239 107.504 12.5239H120.429C120.717 12.5239 120.916 12.7301 120.916 13.0289V15.0695C120.916 15.368 120.717 15.5745 120.429 15.5745H115.574V30.3691Z" fill="#2D3B40"/>
<path fill-rule="evenodd" clip-rule="evenodd" d="M33.4572 0C37.6553 0 41.5482 1.13455 44.9017 3.13041C45.8047 3.66577 46.2503 4.02072 46.2503 4.52678C46.2503 6.65063 40.2465 8.85589 32.5072 8.85589C24.6863 8.85589 20.2772 6.84275 20.2772 4.969C20.2772 4.33496 20.8458 3.84032 21.8542 3.22355C25.2198 1.17525 29.2299 0 33.4572 0ZM48.2319 5.59748C48.3257 5.74304 48.3726 5.90001 48.3726 6.1094C48.3726 8.57648 40.7682 12.9404 28.6612 12.9404C19.7673 12.9404 18.102 9.66477 18.102 7.58163C18.102 6.83688 18.3891 6.07455 19.0224 5.30082C19.0575 5.25425 19.0283 5.23667 18.9873 5.27152C17.8323 6.24324 16.7711 7.33708 15.8389 8.5185C15.3933 9.07699 15.1177 9.57164 15.1177 9.8683C15.1177 14.186 26.023 17.3161 36.2187 17.3161C47.0828 17.3161 51.9315 13.7959 51.9315 10.7003C51.9315 9.59477 51.4977 8.94901 50.3896 7.69789C49.6684 6.88345 48.9882 6.22011 48.267 5.56849C48.2319 5.5392 48.2086 5.56263 48.2319 5.59748ZM12.1407 16.8932C12.3576 15.7642 13.0847 13.5824 13.7413 12.2905C13.759 12.2557 13.7941 12.2615 13.7823 12.3023C13.6711 12.7445 13.5831 13.1691 13.5831 13.5941C13.5831 18.0163 20.9703 21.5189 29.8236 21.5189C37.9966 21.5189 54.1961 17.8008 54.0028 12.0346C53.9966 11.9939 54.0261 11.988 54.0438 12.0229C54.5656 13.076 55.1811 14.5772 55.5093 15.8632C55.8026 17.0153 55.7908 17.8704 55.5621 18.6793C54.3191 23.0781 46.6445 25.4872 36.7655 25.4872C20.5717 25.4872 13.6301 20.8615 12.2581 17.9694C12.0879 17.6089 12.0472 17.3761 12.1407 16.8932ZM28.9602 31.1062C17.5097 31.1062 12.11 25.8112 11.1309 22.1978C11.1191 22.1454 11.084 22.1571 11.084 22.2037C11.084 23.4197 11.207 24.9909 11.418 26.0323C11.5178 26.5384 11.9342 27.3355 12.5438 27.9699C15.3172 30.8385 22.2296 34.8592 34.2017 34.8592C50.5127 34.8592 54.2416 29.4652 55.0038 27.6908C55.5488 26.4221 55.8304 24.1296 55.8304 22.2037C55.8304 21.738 55.8186 21.3658 55.8008 20.9992C55.8008 20.9412 55.766 20.9353 55.7542 20.9936C54.9392 25.3341 41.0028 31.1062 28.9602 31.1062ZM50.1491 36.4359C46.5315 39.3862 40.4811 40.8754 34.9757 40.8754C24.516 40.8754 16.0499 37.6578 13.2591 31.7695C13.2414 31.7229 13.271 31.7056 13.3002 31.746C16.296 36.0579 23.9473 38.3152 31.0592 38.3152C41.1203 38.3152 50.8645 35.2487 54.2298 30.3324C54.2649 30.28 54.2941 30.3034 54.2767 30.3497C53.8898 31.3158 53.4147 32.299 52.9281 33.1251C52.0838 34.5625 51.1401 35.6332 50.1491 36.4359ZM33.4572 44.4074C28.2918 44.4074 23.5312 42.6561 19.7377 39.7406C19.7026 39.7119 19.72 39.6771 19.7673 39.7002C22.2236 41.0617 26.574 42.5861 33.4572 42.5861C41.3782 42.5861 46.4085 40.0317 48.1731 38.8623C48.2201 38.8333 48.2437 38.8623 48.1968 38.903C44.2628 42.3242 39.1092 44.4074 33.4572 44.4074Z" fill="#2D3B40"/>
</svg>
