<svg width="85" height="40" viewBox="0 0 85 40" fill="none" xmlns="http://www.w3.org/2000/svg">
<path fill-rule="evenodd" clip-rule="evenodd" d="M43 0C46.7528 0 50.2328 1.02194 53.2306 2.81972C54.0378 3.30194 54.4361 3.62167 54.4361 4.0775C54.4361 5.99056 49.0692 7.97694 42.1508 7.97694C35.1594 7.97694 31.2181 6.16361 31.2181 4.47583C31.2181 3.90472 31.7264 3.45917 32.6278 2.90361C35.6364 1.05861 39.2211 0 43 0ZM56.2075 5.04194C56.2914 5.17306 56.3333 5.31444 56.3333 5.50306C56.3333 7.72528 49.5356 11.6561 38.7128 11.6561C30.7622 11.6561 29.2736 8.70556 29.2736 6.82917C29.2736 6.15833 29.5303 5.47167 30.0964 4.77472C30.1278 4.73278 30.1017 4.71694 30.065 4.74833C29.0325 5.62361 28.0839 6.60889 27.2506 7.67306C26.8522 8.17611 26.6058 8.62167 26.6058 8.88889C26.6058 12.7781 36.3544 15.5975 45.4686 15.5975C55.1803 15.5975 59.5147 12.4267 59.5147 9.63833C59.5147 8.6425 59.1269 8.06083 58.1364 6.93389C57.4917 6.20028 56.8836 5.60278 56.2389 5.01583C56.2075 4.98944 56.1867 5.01056 56.2075 5.04194ZM23.4978 15.5661C23.6917 14.5492 24.3417 12.5839 24.9286 11.4203C24.9444 11.3889 24.9758 11.3942 24.9653 11.4308C24.8658 11.8292 24.7872 12.2117 24.7872 12.5944C24.7872 16.5778 31.3908 19.7328 39.305 19.7328C46.6111 19.7328 61.0922 16.3836 60.9194 11.1897C60.9139 11.1531 60.9403 11.1478 60.9561 11.1792C61.4225 12.1278 61.9728 13.48 62.2661 14.6383C62.5283 15.6761 62.5178 16.4464 62.3133 17.175C61.2022 21.1372 54.3417 23.3072 45.5106 23.3072C31.0344 23.3072 24.8292 19.1406 23.6028 16.5356C23.4506 16.2108 23.4142 16.0011 23.4978 15.5661ZM38.98 28.0189C28.7442 28.0189 23.9172 23.2494 23.0419 19.9947C23.0314 19.9475 23 19.9581 23 20C23 21.0953 23.11 22.5106 23.2986 23.4486C23.3878 23.9044 23.76 24.6225 24.305 25.1939C26.7842 27.7778 32.9633 31.3994 43.6656 31.3994C58.2464 31.3994 61.5797 26.5408 62.2611 24.9425C62.7483 23.7997 63 21.7347 63 20C63 19.5806 62.9894 19.2453 62.9736 18.915C62.9736 18.8628 62.9425 18.8575 62.9319 18.91C62.2033 22.8197 49.7453 28.0189 38.98 28.0189ZM57.9214 32.8197C54.6875 35.4772 49.2789 36.8186 44.3575 36.8186C35.0072 36.8186 27.4392 33.9203 24.9444 28.6164C24.9286 28.5744 24.955 28.5589 24.9811 28.5953C27.6592 32.4792 34.4989 34.5125 40.8564 34.5125C49.8503 34.5125 58.5608 31.7503 61.5692 27.3219C61.6006 27.2747 61.6267 27.2958 61.6111 27.3375C61.2653 28.2078 60.8406 29.0933 60.4056 29.8375C59.6508 31.1322 58.8072 32.0967 57.9214 32.8197ZM43 40C38.3825 40 34.1269 38.4225 30.7358 35.7964C30.7044 35.7706 30.72 35.7392 30.7622 35.76C32.9581 36.9864 36.8469 38.3594 43 38.3594C50.0808 38.3594 54.5775 36.0586 56.155 35.0053C56.1969 34.9792 56.2181 35.0053 56.1761 35.0419C52.6594 38.1236 48.0525 40 43 40Z" fill="#2D3B40"/>
</svg>
