<svg width="77" height="30" viewBox="0 0 77 30" fill="none" xmlns="http://www.w3.org/2000/svg">
<path fill-rule="evenodd" clip-rule="evenodd" d="M39 0C41.8146 0 44.4246 0.766458 46.6729 2.11479C47.2783 2.47646 47.5771 2.71625 47.5771 3.05813C47.5771 4.49292 43.5519 5.98271 38.3631 5.98271C33.1196 5.98271 30.1635 4.62271 30.1635 3.35687C30.1635 2.92854 30.5448 2.59438 31.2208 2.17771C33.4773 0.793958 36.1658 0 39 0ZM48.9056 3.78146C48.9685 3.87979 49 3.98583 49 4.12729C49 5.79396 43.9017 8.74208 35.7846 8.74208C29.8217 8.74208 28.7052 6.52917 28.7052 5.12187C28.7052 4.61875 28.8977 4.10375 29.3223 3.58104C29.3458 3.54958 29.3263 3.53771 29.2987 3.56125C28.5244 4.21771 27.8129 4.95667 27.1879 5.75479C26.8892 6.13208 26.7044 6.46625 26.7044 6.66667C26.7044 9.58354 34.0158 11.6981 40.8515 11.6981C48.1352 11.6981 51.386 9.32 51.386 7.22875C51.386 6.48187 51.0952 6.04563 50.3523 5.20042C49.8687 4.65021 49.4127 4.20208 48.9292 3.76187C48.9056 3.74208 48.89 3.75792 48.9056 3.78146ZM24.3733 11.6746C24.5188 10.9119 25.0063 9.43792 25.4465 8.56521C25.4583 8.54167 25.4819 8.54562 25.474 8.57312C25.3994 8.87187 25.3404 9.15875 25.3404 9.44583C25.3404 12.4333 30.2931 14.7996 36.2287 14.7996C41.7083 14.7996 52.5692 12.2877 52.4396 8.39229C52.4354 8.36479 52.4552 8.36083 52.4671 8.38438C52.8169 9.09583 53.2296 10.11 53.4496 10.9788C53.6463 11.7571 53.6383 12.3348 53.485 12.8813C52.6517 15.8529 47.5063 17.4804 40.8829 17.4804C30.0258 17.4804 25.3719 14.3554 24.4521 12.4017C24.3379 12.1581 24.3106 12.0008 24.3733 11.6746ZM35.985 21.0142C28.3081 21.0142 24.6879 17.4371 24.0315 14.996C24.0235 14.9606 24 14.9685 24 15C24 15.8215 24.0825 16.8829 24.224 17.5865C24.2908 17.9283 24.57 18.4669 24.9787 18.8954C26.8381 20.8333 31.4725 23.5496 39.4992 23.5496C50.4348 23.5496 52.9348 19.9056 53.4458 18.7069C53.8113 17.8498 54 16.301 54 15C54 14.6854 53.9921 14.434 53.9802 14.1862C53.9802 14.1471 53.9569 14.1431 53.949 14.1825C53.4025 17.1148 44.059 21.0142 35.985 21.0142ZM50.191 24.6148C47.7656 26.6079 43.7092 27.614 40.0181 27.614C33.0054 27.614 27.3294 25.4402 25.4583 21.4623C25.4465 21.4308 25.4662 21.4192 25.4858 21.4465C27.4944 24.3594 32.6242 25.8844 37.3923 25.8844C44.1377 25.8844 50.6706 23.8127 52.9269 20.4915C52.9504 20.456 52.97 20.4719 52.9583 20.5031C52.699 21.1558 52.3804 21.82 52.0542 22.3781C51.4881 23.3492 50.8554 24.0725 50.191 24.6148ZM39 30C35.5369 30 32.3452 28.8169 29.8019 26.8473C29.7783 26.8279 29.79 26.8044 29.8217 26.82C31.4685 27.7398 34.3852 28.7696 39 28.7696C44.3106 28.7696 47.6831 27.044 48.8662 26.254C48.8977 26.2344 48.9135 26.254 48.8821 26.2815C46.2446 28.5927 42.7894 30 39 30Z" fill="#2D3B40"/>
</svg>
