<svg width="132" height="60" viewBox="0 0 132 60" fill="none" xmlns="http://www.w3.org/2000/svg">
<path fill-rule="evenodd" clip-rule="evenodd" d="M66 0C71.6292 0 76.8492 1.53292 81.3458 4.22958C82.5567 4.95292 83.1542 5.4325 83.1542 6.11625C83.1542 8.98583 75.1037 11.9654 64.7262 11.9654C54.2392 11.9654 48.3271 9.24542 48.3271 6.71375C48.3271 5.85708 49.0896 5.18875 50.4417 4.35542C54.9546 1.58792 60.3317 0 66 0ZM85.8112 7.56292C85.9371 7.75958 86 7.97167 86 8.25458C86 11.5879 75.8033 17.4842 59.5692 17.4842C47.6433 17.4842 45.4104 13.0583 45.4104 10.2437C45.4104 9.2375 45.7954 8.2075 46.6446 7.16208C46.6917 7.09917 46.6525 7.07542 46.5975 7.1225C45.0487 8.43542 43.6258 9.91333 42.3758 11.5096C41.7783 12.2642 41.4088 12.9325 41.4088 13.3333C41.4088 19.1671 56.0317 23.3962 69.7029 23.3962C84.2704 23.3962 90.7721 18.64 90.7721 14.4575C90.7721 12.9637 90.1904 12.0912 88.7046 10.4008C87.7375 9.30042 86.8254 8.40417 85.8583 7.52375C85.8112 7.48417 85.78 7.51583 85.8112 7.56292ZM36.7467 23.3492C37.0375 21.8237 38.0125 18.8758 38.8929 17.1304C38.9167 17.0833 38.9637 17.0912 38.9479 17.1462C38.7987 17.7437 38.6808 18.3175 38.6808 18.8917C38.6808 24.8667 48.5862 29.5992 60.4575 29.5992C71.4167 29.5992 93.1383 24.5754 92.8792 16.7846C92.8708 16.7296 92.9104 16.7217 92.9342 16.7688C93.6338 18.1917 94.4592 20.22 94.8992 21.9575C95.2925 23.5142 95.2767 24.6696 94.97 25.7625C93.3033 31.7058 83.0125 34.9608 69.7658 34.9608C48.0517 34.9608 38.7437 28.7108 36.9042 24.8033C36.6758 24.3162 36.6212 24.0017 36.7467 23.3492ZM59.97 42.0283C44.6162 42.0283 37.3758 34.8742 36.0629 29.9921C36.0471 29.9212 36 29.9371 36 30C36 31.6429 36.165 33.7658 36.4479 35.1729C36.5817 35.8567 37.14 36.9338 37.9575 37.7908C41.6762 41.6667 50.945 47.0992 66.9983 47.0992C88.8696 47.0992 93.8696 39.8112 94.8917 37.4137C95.6225 35.6996 96 32.6021 96 30C96 29.3708 95.9842 28.8679 95.9604 28.3725C95.9604 28.2942 95.9137 28.2862 95.8979 28.365C94.805 34.2296 76.1179 42.0283 59.97 42.0283ZM88.3821 49.2296C83.5312 53.2158 75.4183 55.2279 68.0363 55.2279C54.0108 55.2279 42.6588 50.8804 38.9167 42.9246C38.8929 42.8617 38.9325 42.8383 38.9717 42.8929C42.9887 48.7188 53.2483 51.7687 62.7846 51.7687C76.2754 51.7687 89.3412 47.6254 93.8537 40.9829C93.9008 40.9121 93.94 40.9437 93.9167 41.0062C93.3979 42.3117 92.7608 43.64 92.1083 44.7562C90.9762 46.6983 89.7108 48.145 88.3821 49.2296ZM66 60C59.0737 60 52.6904 57.6338 47.6038 53.6946C47.5567 53.6558 47.58 53.6087 47.6433 53.64C50.9371 55.4796 56.7704 57.5392 66 57.5392C76.6213 57.5392 83.3662 54.0879 85.7325 52.5079C85.7954 52.4688 85.8271 52.5079 85.7642 52.5629C80.4892 57.1854 73.5788 60 66 60Z" fill="#2D3B40"/>
</svg>
